<?xml version="1.0" encoding="UTF-8"?>
<!DOCTYPE svg PUBLIC "-//W3C//DTD SVG 1.1//EN" "http://www.w3.org/Graphics/SVG/1.1/DTD/svg11.dtd">
<!-- Creator: CorelDRAW -->
<svg xmlns="http://www.w3.org/2000/svg" xml:space="preserve" width="210mm" height="297mm" style="shape-rendering:geometricPrecision; text-rendering:geometricPrecision; image-rendering:optimizeQuality; fill-rule:evenodd; clip-rule:evenodd"
viewBox="0 0 210 297"
 xmlns:xlink="http://www.w3.org/1999/xlink">
 <defs>
  <style type="text/css">
   <![CDATA[
    .fil4 {fill:none}
    .fil2 {fill:#00923F}
    .fil0 {fill:#605D5C}
    .fil5 {fill:#8F5444}
    .fil3 {fill:#DA251D}
    .fil1 {fill:#FFF500}
   ]]>
  </style>
   <clipPath id="id0">
    <path d="M75.5602 93.3095l-0.2609 -6.9917 0 -3.7459c-5.8737,1.3687 -20.8072,12.6795 -22.7326,17.7181 -0.6683,1.7491 0.693,16.6217 1.2582,18.495 0.799,2.6479 2.6289,4.0787 4.4356,5.8023 0.9945,0.9487 5.1768,3.2997 6.8023,3.435 -0.5643,-2.1137 -3.2706,-3.8511 -4.1056,-7.6307 -0.7857,-3.5566 -0.6382,-7.1734 -0.6382,-10.5994l0.0567 -0.7563 -0.2564 -2.69 0.4494 -0.5494c3.1766,0 5.198,-1.0136 8.9884,-0.9986 1.3045,0.0052 3.4074,-0.1167 4.6573,-0.3362 1.7571,-0.3086 1.5842,-1.6223 1.5842,-3.6597l0 -0.2497c0,-0.5755 -0.1737,-0.7492 -0.749,-0.7492l-1.7477 0c-2.545,0 -6.4474,0.9746 -8.6362,1.6006 -7.8915,2.2569 -3.748,0.7303 -5.3454,-2.5995 1.5071,-1.0094 0.8816,-1.339 3.2049,-2.0387 1.1744,-0.3537 3.0846,-0.7503 4.4316,-1.0614 1.4156,-0.327 3.463,-0.4489 4.7016,-0.7913 1.5823,-0.4375 3.0227,-1.3709 3.9018,-1.6033zm-2.6646 61.3406c-0.9687,-3.2369 -1.6562,-6.7853 -2.3221,-10.1637 -0.6753,-3.4258 -1.4437,-6.6342 -4.0592,-8.1766 -2.694,-1.5885 -4.9582,-3.293 -9.1913,-3.293 -1.3516,0 -0.976,5.9935 -3.4954,5.9935l-1.2484 0c-1.3825,0 -1.6985,-0.9288 -2.247,-1.7481 0,-4.1947 -0.339,-6.8694 -2.892,-8.5949 -2.2713,-1.5351 -6.2829,-2.2939 -9.1275,-1.6798 -2.9271,0.632 -4.4588,14.2289 -4.4588,19.0152l0 3.9956c0,6.621 1.4697,12.0147 3.3923,16.8349 0.938,2.3516 4.485,14.1313 6.3449,14.1313l0.749 0c1.6102,0 4.7839,-2.4243 5.9921,-2.747l0 -1.7481c0,-1.3276 -3.182,-9.7603 -3.7486,-11.9834 -0.7519,-2.9503 -2.9925,-9.6407 -2.9925,-12.7396l0 -3.2465c0,-2.4323 0.8168,-3.4961 3.2457,-3.4961 0.6743,0 0.6884,0.1192 1.2483,0.2497 1.2264,5.2651 1.3546,10.9366 2.903,16.0756 0.7614,2.5271 1.3562,4.7767 2.196,7.2932 0.6481,1.9423 2.2451,5.3987 2.6408,7.0979 1.1536,-0.096 5.9921,-1.9366 5.9921,-2.747 0,-2.1259 -0.9524,-3.5878 -1.3516,-5.6404 -0.4451,-2.2882 -0.8075,-3.4071 -1.2454,-5.9964 -0.7201,-4.2582 -1.3977,-8.2001 -1.3977,-13.0862 0,-1.0122 0.2691,-2.2475 1.2484,-2.2475l0.4993 0c2.0042,0 3.5214,2.0361 3.4954,4.4951 -0.0255,2.4025 0.8567,4.3842 0.9987,6.9923 0.2786,5.118 0.8278,9.7472 2.996,12.9859 2.312,-0.5388 8.2392,-3.1492 8.2392,-5.494l0 -0.4995c0,-1.7159 -1.847,-7.9719 -2.4037,-9.8324zm24.724 0.4424c0.9113,-3.2013 1.8977,-6.1335 1.8977,-10.0887 0,-2.9699 -1.4216,-5.954 -3.193,-7.2948 -1.3249,-1.003 -5.8014,-2.4283 -8.2296,-2.1516 -2.1914,0.2497 -6.5038,1.5117 -8.0091,2.4966 -1.56,1.0208 -3.538,4.5833 -3.538,6.9498l0 2.2475c0,3.2936 1.8799,8.186 2.2294,11.5051 0.5612,5.33 -0.1371,8.0388 6.0091,7.9082l4.7444 0.0654c1.6265,-0.0172 2.4102,-0.7194 3.6205,-0.8838l1.6888 -1.5621 0.1835 0.1984c0.1546,-1.8583 1.9652,-7.1728 2.5963,-9.39zm-8.0891 -12.8357c2.1858,0 3.9947,1.5126 3.9947,3.7459l0 2.2475c0,2.5881 -0.8973,6.577 -1.3946,9.0936 -0.5686,2.8771 -1.2312,5.8901 -4.5975,5.8901 -3.0372,0 -2.5555,-2.9334 -3.0576,-5.4325 -0.4284,-2.1325 -0.6874,-4.8771 -0.6874,-7.5534l0 -1.4983c0,-5.6085 2.0556,-4.5843 2.7463,-6.4929l2.9961 0zm34.7076 18.4832c0.1287,-4.0311 1.245,-8.3237 1.245,-13.239l0 -1.9978c0,-2.8222 -0.2656,-5.8054 -1.535,-7.4548 -1.1019,-1.4316 -3.4843,-3.0337 -5.9551,-3.0337l-0.2497 0c-0.3184,0 -2.066,0.7491 -3.9947,0.7491 -0.0433,1.9452 -2.0632,2.9968 -3.9948,2.9968l-0.4993 0c-1.2124,0 -1.0666,-4.7449 -2.9961,-4.7449l-1.7476 0c-0.5822,0 -1.2484,0.6664 -1.2484,1.2487l0.1548 2.9845 0.8439 12.998 0.1748 4.2704 -1.4232 10.4636 0 0.7491 2.9961 0c0.8472,0 2.038,-0.7167 3.4954,-0.7491 0.5542,-2.3796 1.7202,-9.9015 1.7572,-12.4769 0.0609,-4.247 -0.8355,-10.9975 3.2362,-10.9975l0.9987 0c0.9578,0 1.7477,0.7206 1.7477,1.4983l0 0.2498 0.2503 0.0281 -2.2477 18.4517 0 1.9978c0,1.8832 0.3193,3.2465 2.247,3.2465 2.5538,0 4.0067,0.3542 5.0833,-1.6583 0.6642,-1.2416 1.6071,-3.8851 1.6612,-5.5804zm25.4631 -11.7406c0,-2.4376 -1.3915,-7.1829 -2.4405,-8.5469 -0.698,-0.9076 -2.1056,-1.7305 -3.4856,-2.0077 -0.3652,-0.0734 -4.7464,-0.9415 -4.8193,-1.0025l-4.4787 0.6122c-0.9772,1.4078 -2.1105,1.9046 -3.0117,3.9427 -0.555,1.2552 -0.7392,4.571 -0.7392,6.5027l0 3.2465c0,3.6267 0.4994,7.3722 0.4993,11.7372 0,2.0942 -0.4399,4.529 1.3347,4.9082 1.8104,0.387 3.4508,0.8355 5.4064,0.8355l1.2484 0c8.2175,0 10.4862,-10.2242 10.4862,-18.4798l0 -1.7481zm-4.9934 -0.9989l0 1.7481c0,3.0831 -0.7104,6.6667 -1.4522,9.036 -0.7989,2.5517 -0.2509,6.9465 -3.2916,6.9465l-0.9987 0c-1.4474,0 -3.2457,-1.1363 -3.2457,-2.747l0 -0.2497 0.8937 -7.9784 -0.1447 -2.5101c0,-3.5743 -1.0299,-9.7394 3.2457,-9.7394l1.7477 0c0.7193,0 2.2906,1.2492 2.6631,1.8314 0.4105,0.6415 0.5827,2.6061 0.5827,3.6626zm18.9749 -17.9804c-5.5295,0 -8.2391,8.8172 -8.2391,14.7339 0,2.2416 -0.0716,5.9935 2.247,5.9935l0.2497 0c1.0553,0 2.4903,-0.9989 3.9948,-0.9989l1.2483 0c2.6037,0 4.4941,1.5023 4.4941,3.9956l0 1.2487c0,4.9975 -0.913,12.2366 -5.7424,12.2366 -3.2194,0 -3.8952,-2.3864 -5.9921,-3.4962 -5.2632,1.2265 -4.4941,3.8603 -4.4941,9.4897l2.7464 0c1.5894,0 4.2887,5.494 10.4861,5.494 5.2247,0 6.4734,-3.4125 7.8355,-7.3962 1.0791,-3.1563 2.858,-8.7516 2.8906,-12.5918 0.0194,-2.2795 0.5955,-3.4864 0.2445,-6.7179 -0.2159,-1.988 -1.3058,-4.0388 -2.8247,-4.9162 -3.3981,-1.9629 -10.6426,-0.4214 -10.6426,-4.8381l0 -1.4984c0,-1.7903 2.5245,-3.2465 4.7438,-3.2465l0.2496 0c1.9062,0 2.8492,0.9819 2.9961,2.747l2.247 0c0.824,0 2.2471,-0.3367 2.2471,-0.9989 0,-3.1637 -0.7808,-4.2463 -1.7082,-6.2827 -0.6476,-1.422 -2.6018,-3.7064 -4.2839,-3.7064l-2.2471 0c-1.3517,0 -1.943,0.2112 -2.7464,0.7492zm-82.4162 -49.4455l0.7739 36.7094c1.1482,1.7152 5.2184,1.4984 7.9894,1.4984 2.9674,0 5.496,-1.2487 7.2405,-1.2487l0.2497 0c1.654,0 1.4109,2.2653 1.1919,3.6894 -0.182,1.1833 -0.4116,3.8449 -0.6926,5.0511l-1.2483 0c-0.3513,-0.9705 -2.6777,-1.9978 -3.9948,-1.9978 -2.129,0 -5.2431,2.6248 -5.2431,4.4951l0 0.7491c0,2.5746 3.4931,3.9957 6.4915,3.9957 4.9023,0 8.1873,-4.2454 9.2378,-4.2454l1.0257 -0.2222c3.2415,0.2698 3.8801,4.7173 9.4605,4.7173l1.2483 0c2.743,0 6.1307,-1.7088 6.7411,-3.9956l-0.1105 -0.2531 -4.3863 1.9767 -2.9933 0.2742 -0.4993 0c-1.0297,0 -2.2471,-0.8394 -2.2471,-1.7481l0 -0.4995c0,-0.9072 0.2962,-0.8759 0.4994,-1.748 0.2915,-0.0243 3.4155,-1.2972 3.9881,-1.5089 0.5197,-0.1922 3.4587,-0.2392 5,-0.2392 0.0538,-0.1017 0.4994,-0.9701 0.4994,-0.9989 0,-0.6994 -1.4715,-2.5399 -2.2471,-2.747l-1.498 -0.2498c-2.2734,-0.5297 -7.6664,-0.1571 -9.2963,0.9404 -1.8805,1.2662 -3.996,5.0531 -5.6839,5.0531 -0.7768,0 -1.1336,-0.9539 -1.4298,-1.5054l-0.3179 -3.2394c-0.3525,-3.4406 0.7324,-5.0733 1.7477,-6.9924 -0.6339,-1.1982 -2.763,-1.9978 -4.4941,-1.9978l-1.2569 -0.051 -3.9862 0.5504c-0.201,0.1398 -0.6164,0.4995 -0.749,0.4995 -2.4017,0 -1.7073,-5.063 -2.0211,-7.7178 -0.3296,-2.7881 0.1053,-7.2176 -0.376,-9.8628 -0.8631,-4.7445 -0.0996,-14.7753 -0.0996,-19.8785l-0.0824 -0.2387 -8.4313 2.9862zm16.0203 47.5029c0.4981,0.2637 0.9036,0.1971 0.9036,0.9039l0 0.9038c0,0.9218 -3.946,1.1298 -4.9699,1.1298 -1.0802,0 -2.2591,-0.7976 -2.2591,-2.0336 0,-0.9303 0.3399,-1.4302 0.9036,-1.8078 2.1406,0.1783 3.3638,1.3835 5.4218,0.9039zm12.4341 -3.7101c0.8886,-0.0739 1.9434,-0.8236 3.4673,-0.9274 2.3365,-0.1592 1.1554,0.3167 3.0505,-0.5565 0.8169,0.1636 1.1148,0.5529 1.1149,1.2526l0 0.2313c0,2.1787 -5.7432,-0.2009 -6.4763,2.5448 -0.7242,-0.0602 -1.3877,-0.1586 -1.3877,-0.9254l0 -0.4626c0,-0.6249 0.1104,-0.6379 0.2313,-1.1568zm26.1137 -37.5569l1.9625 33.4655 -0.0201 0.5074 -0.3337 6.5964 5.5168 -0.8559c0.3321,-3.9927 -1.4981,-6.6623 -1.4981,-10.4885 0,-2.62 0.5122,-5.2632 1.0086,-7.482 0.5936,-2.6537 1.1774,-4.0055 3.9849,-4.0055 3.168,0 3.6219,7.9913 6.9907,7.9913l1.2484 0c0.8577,0 4.2444,-2.327 4.2444,-3.2465l0 -0.4994c0,-2.9356 -10.3828,-12.4864 -12.2339,-12.4864l-0.2496 0c-1.4536,0 -0.095,3.4962 -2.2471,3.4962l-1.2483 0c-1.1979,0 -2.4967,-2.6493 -2.4967,-3.9957 0,-2.204 1.7477,-0.995 1.7477,-2.4972l0 -0.7492c0,-1.8635 -4.8166,-5.3535 -6.3765,-5.7505zm-32.3191 10.4919c0.1425,3.5833 0.3767,11.0997 0.9326,14.3005 0.8408,4.8414 1.2488,8.6778 6.8038,8.6778l1.2483 0c3.5546,0 5.8876,-0.9916 9.1442,-0.4058 3.6543,0.6573 5.1123,1.9933 7.5838,2.6534 -0.3284,-1.2299 -1.2484,-2.0847 -1.2484,-3.7459l0 -0.9989c0,-0.69 0.6024,-4.9113 0.7314,-6.0112 0.2329,-1.9851 -0.2337,-4.7349 0.0707,-6.6719 0.5018,-3.1933 0.5629,-9.2001 -0.2031,-12.6391 -1.3226,-5.9379 -0.4295,-5.3503 -3.6928,-9.7916 -1.0277,-1.3988 -7.7265,-3.8437 -9.8891,-3.8437l-0.4993 0c-4.0185,0 -9.8,1.8114 -10.687,4.544 -0.6981,2.1508 -1.16,3.4392 -0.7802,6.6761 0.2188,1.8655 0.4087,5.3364 0.4851,7.2563zm8.4854 -3.2431l0 -8.241c0,-0.9604 1.8277,-1.7481 2.7464,-1.7481l0.749 0c5.4337,0 6.4107,3.8741 6.9731,8.7582 0.5472,4.7519 1.266,9.3126 1.266,13.7173l0 1.2487c0,0.5397 -1.7403,3.7159 -2.0808,4.4116 -1.2233,2.4991 -2.1651,1.9686 -3.1623,3.3299 -0.6581,-0.3264 0.2056,-0.2497 -0.749,-0.2497 -4.6464,0 -4.4713,-3.4935 -4.7438,-8.4907 -0.2182,-4.0008 -0.9986,-8.5304 -0.9986,-12.7362z"/>
   </clipPath>
 </defs>
 <g id="Capa_x0020_1">
  <metadata id="CorelCorpID_0Corel-Layer"/>
  <path class="fil0" d="M113.749 92.561l0 -5.2443c0,-0.829 0.9354,-1.2006 1.498,-1.4984 1.9336,0.928 2.7642,-0.4885 4.4524,2.2893 0.6881,1.1321 0.8404,4.1051 1.0328,5.7095 0.4728,3.9424 1.2559,8.0195 1.2559,12.2292l0 0.7491c0,2.7913 -2.0637,4.9772 -3.2768,6.6241l-1.9663 0.618c-2.9266,-1.9602 -2.996,-16.108 -2.996,-21.4765zm-1.7477 -6.7427l0 8.241c0,4.2058 0.7804,8.7354 0.9986,12.7362 0.2725,4.9972 0.0974,8.4907 4.7438,8.4907 0.9546,0 0.0909,-0.0767 0.749,0.2497 0.9972,-1.3613 1.939,-0.8308 3.1623,-3.3299 0.3405,-0.6957 2.0808,-3.8719 2.0808,-4.4116l0 -1.2487c0,-4.4047 -0.7188,-8.9654 -1.266,-13.7173 -0.5624,-4.8841 -1.5394,-8.7582 -6.9731,-8.7582l-0.749 0c-0.9187,0 -2.7464,0.7877 -2.7464,1.7481z"/>
  <path class="fil0" d="M138.716 164.233c-1.3522,0 -0.4958,-3.7271 -0.4993,-5.2442 -0.0052,-2.2534 0.2396,-3.7413 0.2506,-5.9946 0.0196,-4.0277 -1.8619,-8.9892 2.995,-8.9892 0.6543,0 1.7477,2.1574 1.7477,2.9968l0 0.9989c0,1.9196 -0.7778,7.5796 -1.2129,9.0256 -0.6907,2.2957 -0.6799,7.2067 -3.0315,7.2067l-0.2496 0zm-2.2471 -11.9869l0.1447 2.5101 -0.8937 7.9784 0 0.2497c0,1.6107 1.7983,2.747 3.2457,2.747l0.9987 0c3.0407,0 2.4927,-4.3948 3.2916,-6.9465 0.7418,-2.3693 1.4522,-5.9529 1.4522,-9.036l0 -1.7481c0,-1.0565 -0.1722,-3.0211 -0.5827,-3.6626 -0.3725,-0.5822 -1.9438,-1.8314 -2.6631,-1.8314l-1.7477 0c-4.2756,0 -3.2457,6.1651 -3.2457,9.7394z"/>
  <path class="fil0" d="M85.5358 148.5c0,-2.1259 0.9503,-4.7448 2.996,-4.7448l0.9987 0c1.1214,0 2.361,1.1059 2.247,2.2476 0,3.0524 -0.3766,5.2494 -0.802,7.9382 -0.2407,1.5208 -1.675,5.9104 -1.6947,6.7957l-2.1121 1.2123 -0.3046 -0.1897 -1.4231 -11.4335 0.0948 -1.8258zm-1.7477 0.2498l0 1.4983c0,2.6763 0.259,5.4209 0.6874,7.5534 0.5021,2.4991 0.0204,5.4325 3.0576,5.4325 3.3663,0 4.0289,-3.013 4.5975,-5.8901 0.4973,-2.5166 1.3946,-6.5055 1.3946,-9.0936l0 -2.2475c0,-2.2333 -1.8089,-3.7459 -3.9947,-3.7459l-2.9961 0c-0.6907,1.9086 -2.7463,0.8844 -2.7463,6.4929z"/>
  <path class="fil0" d="M138.956 137.442c0.0729,0.061 4.4541,0.9291 4.8193,1.0025 1.38,0.2772 2.7876,1.1001 3.4856,2.0077 1.049,1.364 2.4405,6.1093 2.4405,8.5469l0 1.7481c0,8.2556 -2.2687,18.4798 -10.4862,18.4798l-1.2484 0c-1.9556,0 -3.596,-0.4485 -5.4064,-0.8355 -1.7746,-0.3792 -1.3347,-2.814 -1.3347,-4.9082 0.0001,-4.365 -0.4993,-8.1105 -0.4993,-11.7372l0 -3.2465c0,-1.9317 0.1842,-5.2475 0.7392,-6.5027 0.9012,-2.0381 2.0345,-2.5349 3.0117,-3.9427l4.4787 -0.6122zm-78.1958 44.0007l3.002 -3.397 -1.58 -0.079 -3.081 1.975 -1.896 1.896 -2.054 3.081 2.528 -1.027 3.081 -2.449zm23.147 -4.345l-1.264 1.975 -0.395 2.607 0.474 0.869 0.079 -1.738 1.422 -1.738 1.027 -2.923 -0.869 -2.449 -0.632 0.158 0 0.869 0.158 2.37zm-8.216 2.291l-1.185 1.422 -0.237 2.212 -0.158 3.397 0.474 1.58 0.237 -2.054 0.948 -1.106 0.711 -2.607 -0.079 -1.422 -0.711 -1.422zm-3.081 -3.239l-0.79 -0.948 -0.553 -1.659 -0.237 -0.079 -0.237 1.185 0.158 1.422 1.659 0.079zm6.399 -2.528l1.106 -1.027 -1.343 -0.474 -0.553 -1.817 -0.158 0.948 0.237 1.501 0.711 0.869zm50.1561 11.6672c-0.1741,-0.66 -0.6331,-1.4206 -0.9262,-2.0482 -0.1314,-0.2812 -0.2504,-0.5618 -0.3531,-0.8448 -0.2338,0.4422 -0.4027,0.8749 -0.4027,1.3153l0 1.2487c0,1.1119 0.3256,1.7459 1.4954,1.7459l0.0733 0c0.0952,-0.4265 0.1622,-0.7988 0.1736,-1.0096 -0.0014,-0.1379 -0.0252,-0.2742 -0.0603,-0.4073zm-1.9897 -14.2591l-0.3557 -1.3859 0 -1.5442 0.2767 -1.3463 -0.0791 -0.5939 -0.8696 1.861 -0.3558 1.9006 0.1582 1.1087 1.2253 0zm32.8086 -13.4626l-1.9764 -0.792 -2.095 -2.3757 0.1976 1.5442 1.8974 2.653 1.7393 1.5838 2.7669 1.9798 1.9765 0.9107 -0.0396 -0.6335 -0.079 -0.1188 -2.3322 -2.9697 -2.0555 -1.7818zm-31.995 -28.8175c0.1276,0.8934 0.2206,1.7886 0.316,2.686l-1.027 1.896 -1.817 1.58 0.632 -2.133 0.395 -2.212 1.501 -1.817zm-76.3128 -11.7683c-0.2237,-1.193 -0.276,-1.0964 -0.9092,-3.0489l-2.8065 -1.9798 -2.4112 -1.0691 -2.4113 -1.5442 -1.8578 -2.0986 0.1581 1.5838 1.3835 3.1281 1.9369 1.3462 3.1623 1.2275 1.423 0.8711 2.3322 1.5839zm-13.9536 -0.0792l1.0278 1.267 2.3321 0.6732 1.7393 0.7919 0.5929 1.3462 0.5139 2.8114 -0.0791 1.5838 -1.7392 -0.4752 -1.2649 -0.9107 -1.3835 -1.5046 -0.9092 -1.663 -0.3162 -1.9402 -0.5139 -1.9798zm32.1224 2.5255l0.869 2.923 -0.79 2.686 -0.632 1.343 0.711 2.528 -0.237 0.395 -0.948 -1.58 -0.553 -1.975 0.632 -3.002 0.237 -0.395c0.6923,-1.1539 -0.2765,1.106 0.711,-2.923zm8.848 5.293l-0.79 1.501 -0.553 2.37 -1.501 2.291 -0.632 0.553 0.079 -2.37 0.79 -2.686 2.607 -1.659zm1.027 -9.717l-2.133 0.79 -3.397 -0.237 -1.975 -0.869 -3.318 -2.844 -0.316 -0.869 2.528 1.817 3.081 0.158 2.765 0.553 2.765 1.501zm72.285 4.898l1.343 1.343 2.291 1.896 1.264 2.054 0.553 2.686 0.237 1.975 -1.738 -1.027 -2.133 -2.37 -0.869 -2.686 -0.948 -3.871zm11.534 -3.081l1.422 2.765 0.158 2.37 -1.027 2.133 -0.948 1.975 -0.079 1.027 -0.79 -2.449 0 -3.002 0.869 -2.923 0.395 -1.896zm-16.59 14.062l-1.422 1.975 -2.449 0.632 -1.896 0 -2.449 0.948 -1.027 0.79 1.027 -1.343 2.449 -1.422 2.765 -0.948 1.975 -0.79 1.027 0.158zm-2.529 52.1063c-0.5795,-0.5963 -1.1484,-1.2009 -1.6238,-1.9111l-2.0839 -3.1126 3.7458 0c1.7518,0 3.3283,-0.4404 4.8149,-1.3628 0.5496,-0.341 1.0223,-0.7118 1.4767,-1.0988l-0.4429 -0.5293 -2.4291 -0.7025c-0.04,0.0267 -0.0801,0.0532 -0.1203,0.0795 -1.0302,0.6755 -3.608,1.8702 -4.7973,1.8702l-3.7451 0c-2.7647,0 -4.5041,-0.9071 -6.9613,-1.7658l-2.7926 -0.7357 -4.7357 -1.2444 -5.7337 0c-3.0424,0 -5.5458,1.0988 -8.4932,1.6238 -1.3922,0.248 -2.8302,-0.0993 -4.1151,-0.694l-4.1484 -4.8398 -2.765 -1.975 -0.79 -1.027 -0.474 0.474 1.501 1.817 1.343 2.37 -0.316 2.133 -0.3689 0.8485 -0.8951 0.0995 -3.16 -0.158 -3.871 -1.106 -2.528 -1.106 -3.081 0.079 -2.528 0.316 -3.081 1.738 -2.449 2.133 -2.212 1.264 -4.029 0.869 -2.054 0.158 -2.37 -0.711 -2.528 -1.106 -2.054 -1.343 -0.237 0.395 2.923 1.896 2.133 1.264 3.634 0.474 1.975 0.158 2.765 -1.106 2.528 -1.738 2.528 -2.133 3.081 -1.659 3.476 -0.237 3.318 0.948 2.844 1.422 1.343 0.711 0.756 2.2681 -0.2965 0.2772c-2.4801,3.2269 -6.263,3.4562 -6.263,8.436l0 1.4984c0,0.7851 0.1775,1.5873 0.4126,2.333 0.4015,1.2732 1.0001,2.4826 1.5946,3.6745 0.4985,0.9993 1.2385,2.3552 1.2385,3.4821l0 0.2498c0,4.56 -3.5256,6.7448 -7.7424,6.7448l-1.2484 0c-2.444,0 -4.4141,-0.8514 -6.2258,-2.4523 -0.9944,-0.8788 -1.8214,-1.8806 -2.751,-2.8183 -0.9953,-1.004 -1.9321,-2.3382 -2.8069,-3.4625 -0.4884,-0.6279 -1.8484,-2.4148 -2.4861,-2.8049 -3.0258,-1.8508 -5.9581,-2.691 -9.2563,-1.0743 -2.34,1.147 -4.768,3.6221 -7.4331,3.6221l-0.4993 0c-1.2441,0 -2.1907,-0.9376 -2.8733,-1.8746 -0.2908,-0.3993 -0.6108,-0.897 -0.8348,-1.4156 -0.6969,0.9789 -1.2614,2.0195 -1.2827,2.5388l0 1.7481c0,1.1563 1.3735,2.4967 2.2406,3.1086 0.8207,0.5791 1.9745,1.1346 2.9999,1.1346l0.749 0c1.7445,0 3.6321,-5.7437 9.2378,-5.7437l0.749 0c2.8453,0 6.1699,3.6836 8.0444,5.594 1.2038,1.2268 3.3493,3.5539 4.8445,4.3222 2.5865,1.3289 4.0846,2.8479 7.0894,3.4233 1.1706,0.2242 2.3311,0.3089 3.5116,0.1141 0.9303,-0.1535 1.8044,-0.4721 2.7079,-0.727 0.9594,-0.2707 1.8827,-0.4391 2.884,-0.4391l0.4994 0c1.7211,0 3.7476,2.0271 3.7476,3.7481 0,3.5083 -4.7391,7.4431 -8.112,7.4431 -0.4653,0 -0.9288,-0.0457 -1.3862,-0.1306 -2.3207,-0.4306 -3.8534,-1.6552 -5.8957,-2.5891 -1.9027,-0.87 -6.268,-3.0766 -8.1772,-1.3587 -0.3454,0.3108 -1.0166,1.3428 -1.0166,1.8287l0 0.4784c0.4749,0.374 1.4611,0.8742 1.8659,0.997 0.5616,0.113 1.6568,0.0723 2.2404,0.0662 0.8766,-0.0091 1.7565,-0.0454 2.6322,-0.0454l0.6079 0 0.5051 0.3383c1.6784,1.1241 7.0936,2.9082 9.1235,2.9082 2.9517,0 5.6584,-1.3602 8.0805,-2.9261 1.1133,-0.7197 2.18,-1.5055 3.2892,-2.2281 0.9818,-0.6397 2.1548,-1.3388 3.3609,-1.3388 2.9175,0 4.8225,2.4047 6.5467,4.3941 0.5538,0.6389 3.0936,2.2934 3.9464,2.3486l0.7421 0c1.3749,0 2.8976,-0.3674 4.181,-0.8435 1.2007,-0.4455 2.4993,-1.0999 3.4662,-1.9501 0.4331,-0.3808 1.0886,-1.072 1.0886,-1.6993l0 -0.9989c0,-0.1301 -0.1167,-0.2476 -0.247,-0.2476l-0.2497 0c-0.4267,0 -1.4055,0.493 -1.7888,0.6872 -1.1688,0.5922 -2.5811,1.4432 -3.9156,1.4432l-0.9987 0c-2.5533,0 -6.1147,-2.9026 -6.1147,-5.5625 0,-3.3805 5.2393,-5.3127 8.0741,-5.3127l1.2483 0c2.4786,0 4.7338,1.3426 7.108,1.7198 2.3615,0.3752 4.7334,0.5277 7.1233,0.5277 0.8265,0 1.602,-0.1815 2.3523,-0.5246 3.9343,-1.799 6.2499,-7.1352 9.8769,-9.5327 1.4916,-0.986 3.0272,-1.5557 4.7984,-1.775 1.1163,-0.1383 2.2557,-0.0879 3.3515,-0.2393 0.5367,-0.0742 1.0165,-0.2084 1.4868,-0.4838 1.6773,-0.9819 3.5979,-3.4068 3.5979,-5.4228l0 -1.2486c0,-1.4935 -1.9901,-3.2443 -3.4783,-3.2443 -0.3818,0 -1.6552,0.0298 -1.9552,0.3134 -0.1131,0.1069 -0.1312,0.5631 -0.1312,0.6956l0 0.4994c0,0.1202 0.0776,0.2515 0.1368,0.3505 0.0887,0.1483 0.19,0.2916 0.2886,0.4335 0.6737,0.97 1.1408,1.8304 1.1408,3.0668 0,2.8656 -3.935,3.6145 -6.113,3.9582 -1.4201,0.2241 -2.919,0.376 -4.3574,0.4264 -1.9885,0.0695 -3.3638,1.1004 -4.8602,2.2811 -3.5579,2.8078 -8.6562,7.47 -13.4167,7.47l-0.9987 0c-4.3971,0 -4.6747,-8.1242 -7.5316,-8.1242l-1.2483 0c-0.6207,0 -1.2983,0.308 -1.8515,0.5638 -1.0112,0.4677 -1.9449,0.9354 -3.0693,1.0859 -0.5161,0.0691 -0.1656,0.0476 -0.7042,0.0476l-0.749 0c-1.7432,0 -3.4891,-1.762 -4.4082,-3.135l-0.3381 -0.5049 0 -0.6077c0,-7.3298 1.8784,-10.4213 6.8496,-15.4174 4.4722,-4.4945 7.7942,-4.237 13.737,-4.237l1.6701 0 0.2921 1.6117c0.329,-0.1732 0.7109,-0.2717 1.138,-0.2717 0.9709,0 2.7557,0.778 3.7336,1.0982 1.5195,0.4977 3.1482,0.8996 4.7552,0.8996l0.6079 0 0.5051 0.3383c0.57,0.3818 1.0453,0.8464 1.4726,1.3805 0.93,1.1625 1.2964,2.2275 2.7663,2.837 0.1987,0.0824 0.4,0.1523 0.6021,0.2182zm-28.1813 -60.1058c-1.8951,0.8732 -0.714,0.3973 -3.0505,0.5565 -1.5239,0.1038 -2.5787,0.8535 -3.4673,0.9274 -0.1209,0.5189 -0.2313,0.5319 -0.2313,1.1568l0 0.4626c0,0.7668 0.6635,0.8652 1.3877,0.9254 0.7331,-2.7457 6.4763,-0.3661 6.4763,-2.5448l0 -0.2313c-0.0001,-0.6997 -0.298,-1.089 -1.1149,-1.2526zm-25.2773 6.0979c0,1.236 1.1789,2.0336 2.2591,2.0336 1.0239,0 4.9699,-0.208 4.9699,-1.1298l0 -0.9038c0,-0.7068 -0.4055,-0.6402 -0.9036,-0.9039 -2.058,0.4796 -3.2812,-0.7256 -5.4218,-0.9039 -0.5637,0.3776 -0.9036,0.8775 -0.9036,1.8078zm-14.4138 16.0224c0,-2.3665 1.978,-5.929 3.538,-6.9498 1.5053,-0.9849 5.8177,-2.2469 8.0091,-2.4966 2.4282,-0.2767 6.9047,1.1486 8.2296,2.1516 1.7714,1.3408 3.193,4.3249 3.193,7.2948 0,3.9552 -0.9864,6.8874 -1.8977,10.0887 -0.6311,2.2172 -2.4417,7.5317 -2.5963,9.39l-0.1835 -0.1984 -1.6888 1.5621c-1.2103,0.1644 -1.994,0.8666 -3.6205,0.8838l-4.7444 -0.0654c-6.1462,0.1306 -5.4479,-2.5782 -6.0091,-7.9082 -0.3495,-3.3191 -2.2294,-8.2115 -2.2294,-11.5051l0 -2.2475zm-42.6937 0.9989c0,-4.7863 1.5317,-18.3832 4.4588,-19.0152 2.8446,-0.6141 6.8562,0.1447 9.1275,1.6798 2.553,1.7255 2.892,4.4002 2.892,8.5949 0.5485,0.8193 0.8645,1.7481 2.247,1.7481l1.2484 0c2.5194,0 2.1438,-5.9935 3.4954,-5.9935 4.2331,0 6.4973,1.7045 9.1913,3.293 2.6155,1.5424 3.3839,4.7508 4.0592,8.1766 0.6659,3.3784 1.3534,6.9268 2.3221,10.1637 0.5567,1.8605 2.4037,8.1165 2.4037,9.8324l0 0.4995c0,2.3448 -5.9272,4.9552 -8.2392,5.494 -2.1682,-3.2387 -2.7174,-7.8679 -2.996,-12.9859 -0.142,-2.6081 -1.0242,-4.5898 -0.9987,-6.9923 0.026,-2.459 -1.4912,-4.4951 -3.4954,-4.4951l-0.4993 0c-0.9793,0 -1.2484,1.2353 -1.2484,2.2475 0,4.8861 0.6776,8.828 1.3977,13.0862 0.4379,2.5893 0.8003,3.7082 1.2454,5.9964 0.3992,2.0526 1.3516,3.5145 1.3516,5.6404 0,0.8104 -4.8385,2.651 -5.9921,2.747 -0.3957,-1.6992 -1.9927,-5.1556 -2.6408,-7.0979 -0.8398,-2.5165 -1.4346,-4.7661 -2.196,-7.2932 -1.5484,-5.139 -1.6766,-10.8105 -2.903,-16.0756 -0.5599,-0.1305 -0.574,-0.2497 -1.2483,-0.2497 -2.4289,0 -3.2457,1.0638 -3.2457,3.4961l0 3.2465c0,3.0989 2.2406,9.7893 2.9925,12.7396 0.5666,2.2231 3.7486,10.6558 3.7486,11.9834l0 1.7481c-1.2082,0.3227 -4.3819,2.747 -5.9921,2.747l-0.749 0c-1.8599,0 -5.4069,-11.7797 -6.3449,-14.1313 -1.9226,-4.8202 -3.3923,-10.2139 -3.3923,-16.8349l0 -3.9956zm81.3927 18.7295l0 -1.9978 2.2477 -18.4517 -0.2503 -0.0281 0 -0.2498c0,-0.7777 -0.7899,-1.4983 -1.7477,-1.4983l-0.9987 0c-4.0717,0 -3.1753,6.7505 -3.2362,10.9975 -0.037,2.5754 -1.203,10.0973 -1.7572,12.4769 -1.4574,0.0324 -2.6482,0.7491 -3.4954,0.7491l-2.9961 0 0 -0.7491 1.4232 -10.4636 -0.1748 -4.2704 -0.8439 -12.998 -0.1548 -2.9845c0,-0.5823 0.6662,-1.2487 1.2484,-1.2487l1.7476 0c1.9295,0 1.7837,4.7449 2.9961,4.7449l0.4993 0c1.9316,0 3.9515,-1.0516 3.9948,-2.9968 1.9287,0 3.6763,-0.7491 3.9947,-0.7491l0.2497 0c2.4708,0 4.8532,1.6021 5.9551,3.0337 1.2694,1.6494 1.535,4.6326 1.535,7.4548l0 1.9978c0,4.9153 -1.1163,9.2079 -1.245,13.239 -0.0541,1.6953 -0.997,4.3388 -1.6612,5.5804 -1.0766,2.0125 -2.5295,1.6583 -5.0833,1.6583 -1.9277,0 -2.247,-1.3633 -2.247,-3.2465zm48.4361 -34.7121c0.8034,-0.538 1.3947,-0.7492 2.7464,-0.7492l2.2471 0c1.6821,0 3.6363,2.2844 4.2839,3.7064 0.9274,2.0364 1.7082,3.119 1.7082,6.2827 0,0.6622 -1.4231,0.9989 -2.2471,0.9989l-2.247 0c-0.1469,-1.7651 -1.0899,-2.747 -2.9961,-2.747l-0.2496 0c-2.2193,0 -4.7438,1.4562 -4.7438,3.2465l0 1.4984c0,4.4167 7.2445,2.8752 10.6426,4.8381 1.5189,0.8774 2.6088,2.9282 2.8247,4.9162 0.351,3.2315 -0.2251,4.4384 -0.2445,6.7179 -0.0326,3.8402 -1.8115,9.4355 -2.8906,12.5918 -1.3621,3.9837 -2.6108,7.3962 -7.8355,7.3962 -6.1974,0 -8.8967,-5.494 -10.4861,-5.494l-2.7464 0c0,-5.6294 -0.7691,-8.2632 4.4941,-9.4897 2.0969,1.1098 2.7727,3.4962 5.9921,3.4962 4.8294,0 5.7424,-7.2391 5.7424,-12.2366l0 -1.2487c0,-2.4933 -1.8904,-3.9956 -4.4941,-3.9956l-1.2483 0c-1.5045,0 -2.9395,0.9989 -3.9948,0.9989l-0.2497 0c-2.3186,0 -2.247,-3.7519 -2.247,-5.9935 0,-5.9167 2.7096,-14.7339 8.2391,-14.7339zm-54.7797 4.1949c0.6038,0.2256 2.8482,1.0236 2.8482,1.7986l0 0.7491c-1.0599,0.2831 -0.4368,0.4995 -1.2483,0.4995l-0.5793 -0.058 -1.0206 -2.9892zm-14.3791 0.7997c4.2169,-0.094 6.7865,-2.6837 9.7372,-4.2454l2.531 1.696c-5.7365,0.0521 -5.2271,1.619 -5.0311,6.5484 0.1392,3.4998 0.7524,6.8838 0.7524,10.9846l0 7.9913 -1.3286 8.2287 -4.0021 -2.5075 -0.1621 0.2722c0.8978,-1.8714 4.2444,-14.7423 4.2444,-17.4809l0 -1.2486c0,-2.5139 -0.783,-5.1589 -1.792,-6.6984 -1.6084,-2.4542 -4.2576,-2.5965 -4.9491,-3.5404zm18.4757 -5.2443c0.3544,-1.3276 3.0307,-1.9978 4.7437,-1.9978l2.247 0c-0.4501,1.2437 -4.1211,2.2475 -6.2417,2.2475 -0.482,0 -0.4445,-0.0786 -0.749,-0.2497zm-10.4862 -8.241c0,-1.828 0.6657,-3.271 1.7477,-3.9957 0.5387,1.0185 0.4441,1.3675 1.2609,2.235 0.5234,0.5559 1.3069,0.9263 1.7351,1.5109l-4.3358 4.4057 -0.4634 -2.3995 0.0555 -1.7564zm8.7385 -1.2487c-5.555,0 -5.963,-3.8364 -6.8038,-8.6778 -0.5559,-3.2008 -0.7901,-10.7172 -0.9326,-14.3005 -0.0764,-1.9199 -0.2663,-5.3908 -0.4851,-7.2563 -0.3798,-3.2369 0.0821,-4.5253 0.7802,-6.6761 0.887,-2.7326 6.6685,-4.544 10.687,-4.544l0.4993 0c2.1626,0 8.8614,2.4449 9.8891,3.8437 3.2633,4.4413 2.3702,3.8537 3.6928,9.7916 0.766,3.439 0.7049,9.4458 0.2031,12.6391 -0.3044,1.937 0.1622,4.6868 -0.0707,6.6719 -0.129,1.0999 -0.7314,5.3212 -0.7314,6.0112l0 0.9989c0,1.6612 0.92,2.516 1.2484,3.7459 -2.4715,-0.6601 -3.9295,-1.9961 -7.5838,-2.6534 -3.2566,-0.5858 -5.5896,0.4058 -9.1442,0.4058l-1.2483 0zm31.2187 -11.7273c-0.4964,2.2188 -1.0086,4.862 -1.0086,7.482 0,3.8262 1.8302,6.4958 1.4981,10.4885l-5.5168 0.8559 0.3337 -6.5964 0.0201 -0.5074 -1.9625 -33.4655c1.5599,0.397 6.3765,3.887 6.3765,5.7505l0 0.7492c0,1.5022 -1.7477,0.2932 -1.7477,2.4972 0,1.3464 1.2988,3.9957 2.4967,3.9957l1.2483 0c2.1521,0 0.7935,-3.4962 2.2471,-3.4962l0.2496 0c1.8511,0 12.2339,9.5508 12.2339,12.4864l0 0.4994c0,0.9195 -3.3867,3.2465 -4.2444,3.2465l-1.2484 0c-3.3688,0 -3.8227,-7.9913 -6.9907,-7.9913 -2.8075,0 -3.3913,1.3518 -3.9849,4.0055zm-77.4078 19.4689c-1.6255,-0.1353 -5.8078,-2.4863 -6.8023,-3.435 -1.8067,-1.7236 -3.6366,-3.1544 -4.4356,-5.8023 -0.5652,-1.8733 -1.9265,-16.7459 -1.2582,-18.495 1.9254,-5.0386 16.8589,-16.3494 22.7326,-17.7181l0 3.7459 0.2609 6.9917c-0.8791,0.2324 -2.3195,1.1658 -3.9018,1.6033 -1.2386,0.3424 -3.286,0.4643 -4.7016,0.7913 -1.347,0.3111 -3.2572,0.7077 -4.4316,1.0614 -2.3233,0.6997 -1.6978,1.0293 -3.2049,2.0387 1.5974,3.3298 -2.5461,4.8564 5.3454,2.5995 2.1888,-0.626 6.0912,-1.6006 8.6362,-1.6006l1.7477 0c0.5753,0 0.749,0.1737 0.749,0.7492l0 0.2497c0,2.0374 0.1729,3.3511 -1.5842,3.6597 -1.2499,0.2195 -3.3528,0.3414 -4.6573,0.3362 -3.7904,-0.015 -5.8118,0.9986 -8.9884,0.9986l-0.4494 0.5494 0.2564 2.69 -0.0567 0.7563c0,3.426 -0.1475,7.0428 0.6382,10.5994 0.835,3.7796 3.5413,5.517 4.1056,7.6307zm52.6805 -5.9935l1.498 0.2498c0.7756,0.2071 2.2471,2.0476 2.2471,2.747 0,0.0288 -0.4456,0.8972 -0.4994,0.9989 -1.5413,0 -4.4803,0.047 -5,0.2392 -0.5726,0.2117 -3.6966,1.4846 -3.9881,1.5089 -0.2032,0.8721 -0.4994,0.8408 -0.4994,1.748l0 0.4995c0,0.9087 1.2174,1.7481 2.2471,1.7481l0.4993 0 2.9933 -0.2742 4.3863 -1.9767 0.1105 0.2531c-0.6104,2.2868 -3.9981,3.9956 -6.7411,3.9956l-1.2483 0c-5.5804,0 -6.219,-4.4475 -9.4605,-4.7173l-1.0257 0.2222c-1.0505,0 -4.3355,4.2454 -9.2378,4.2454 -2.9984,0 -6.4915,-1.4211 -6.4915,-3.9957l0 -0.7491c0,-1.8703 3.1141,-4.4951 5.2431,-4.4951 1.3171,0 3.6435,1.0273 3.9948,1.9978l1.2483 0c0.281,-1.2062 0.5106,-3.8678 0.6926,-5.0511 0.219,-1.4241 0.4621,-3.6894 -1.1919,-3.6894l-0.2497 0c-1.7445,0 -4.2731,1.2487 -7.2405,1.2487 -2.771,0 -6.8412,0.2168 -7.9894,-1.4984l-0.7739 -36.7094 8.4313 -2.9862 0.0824 0.2387c0,5.1032 -0.7635,15.134 0.0996,19.8785 0.4813,2.6452 0.0464,7.0747 0.376,9.8628 0.3138,2.6548 -0.3806,7.7178 2.0211,7.7178 0.1326,0 0.548,-0.3597 0.749,-0.4995l3.9862 -0.5504 1.2569 0.051c1.7311,0 3.8602,0.7996 4.4941,1.9978 -1.0153,1.9191 -2.1002,3.5518 -1.7477,6.9924l0.3179 3.2394c0.2962,0.5515 0.653,1.5054 1.4298,1.5054 1.6879,0 3.8034,-3.7869 5.6839,-5.0531 1.6299,-1.0975 7.0229,-1.4701 9.2963,-0.9404zm-16.7279 -32.4646l2.0116 23.9728 -5.6881 -1.5137 -0.0686 0.2662c0.8192,-1.2237 2.0141,-2.3038 2.2358,-4.2567 0.1077,-0.9489 -0.0324,-2.2535 0.0008,-3.2456 0.0461,-1.3788 0.5098,-1.3906 0.5098,-2.7366 0,-0.6431 -1.2274,-0.7492 -1.9974,-0.7492 -0.9265,3.9779 -4.4941,4.4509 -4.4941,9.4897l0 0.2497c0,0.584 0.5145,0.7413 0.749,1.7481 -0.5599,0.1305 -0.574,0.2497 -1.2483,0.2497l-0.749 0 -0.2553 -10.9085c0.075,-0.03 3.8724,-0.4995 6.2027,-3.6203 1.1072,-1.399 3.0158,-5.3494 1.4616,-8.5893l-1.1669 -0.8571c-1.5346,3.1371 -0.8024,2.6774 -3.0585,4.9339 -1.2159,1.2161 -3.2843,4.3104 -3.71,6.1379 -0.8501,-0.6229 -0.5971,-13.0823 -0.4723,-15.3158l0.3579 -7.7494 0.2436 -0.0943 -1.2484 -1.2486 -11.1051 3.2927 0.0175 2.3034 0.9208 32.2102 -4.9051 -2.5133 -3.9996 0.3344c-0.8471,0.0095 -3.5882,-2.811 -4.25,-2.811 -0.4291,0 -1.2484,1.1894 -1.2484,1.7481 0,0.1294 5.7412,6.488 5.7425,6.4929 0.9254,-0.3823 3.4818,0.999 4.9934,0.999 1.2338,0 2.6489,-1.0226 3.4954,-1.2487l0.5849 3.2734 0.2005 -0.1514 1.7445 0.5105 5.4554 0.4271 3.4995 -0.0639c1.8755,0 2.8691,-0.7492 4.9935,-0.7492l0.749 0c-0.0112,0.4993 -0.5541,3.5107 -0.8402,3.664 -0.6334,0.3396 -2.1425,-0.917 -3.1546,-0.917l-1.7477 0c-2.2203,0 -5.7424,3.5228 -5.7424,5.7437l0 0.9989c0,3.0831 2.2193,3.5934 3.2457,4.9946 -2.7576,0 -7.6567,0.8403 -8.9881,1.9978l-4.0232 -3.4646c1.2283,-1.8238 1.9701,-2.6109 2.6759,-5.1251 0.3202,-1.141 0.4232,-1.9829 0.8382,-2.9075 0.7162,-1.5952 1.7574,-0.707 1.7574,-1.9881l0 -0.2497c0,-0.5846 -0.4142,-0.9989 -0.9987,-0.9989l-0.2496 0c-0.719,0 -3.757,2.3682 -4.3149,2.9262 -0.8345,0.8347 -2.1766,3.3935 -2.1766,4.8153l0 0.7492c0,0.861 0.1847,0.967 0.2497,1.7481 -1.0077,-0.5333 -3.2457,-2.8514 -3.2457,-3.7459l0 -1.2487c0,-0.9443 1.498,-3.3441 1.498,-4.7448 0,-1.2881 -1.988,-5.494 -2.996,-5.494l-0.2497 0c-0.5753,0 -0.749,0.1738 -0.749,0.7492l0 1.2486 0.4993 0 0 0.7492c0,1.5211 -1.9973,3.8489 -1.9973,5.9935l0 0.2497c0,1.0742 0.2911,1.3537 0.4993,2.2476 -1.5449,-1.0348 -3.6586,-4.9375 -4.3426,-7.1439 -0.8078,-2.6057 -0.9005,-7.2293 -0.9005,-10.5868l0 -0.2497 0.2796 -2.2431c3.1243,-0.7395 3.8652,-1.0114 7.9596,-1.0033 2.1547,0.0043 6.9907,-0.1162 6.9907,-1.9979l0 -2.2475c0,-1.2225 0.1548,-4.4951 -0.9987,-4.4951l-1.2483 0c-4.8691,0 -10.5601,2.4972 -14.2312,2.4972 0.237,-2.8497 12.0494,-3.1987 14.7305,-4.9945l0.9987 0 0.9447 -0.5859 -0.5253 -5.6481 0.08 -6.5021c0,-0.6909 0.1926,-0.6006 0.749,-0.7492l-0.2191 -1.7531 -0.5674 -0.1323c-3.9328,0.8127 -7.0652,2.9946 -10.1457,4.9355 -1.714,1.0799 -7.5226,5.0411 -8.7236,6.2581 -1.9518,1.9779 -5.9906,5.7106 -6.8637,8.3681 -1.4153,4.3074 0.0544,8.5942 0.0544,13.5396 -0.9198,-0.616 -1.1148,-1.5635 -2.2448,-2.2498 -0.885,-0.5376 -2.0323,-0.8844 -3.0828,-1.4116 -1.5518,-0.7788 -4.2448,-2.7772 -4.6593,-4.3298l-0.749 0c-0.5753,0 -0.749,0.1737 -0.749,0.7491l0 2.747c0,3.1046 1.0039,4.2544 2.8453,5.6448 2.5056,1.8918 3.1321,1.4817 5.86,2.6294 4.0326,1.6965 4.5901,6.0884 7.9741,8.7558 2.64,2.081 7.6552,4.4619 11.0685,5.6608 1.7332,0.6088 4.5249,1.6691 5.9133,2.5761 0.8383,0.5476 3.7894,3.4618 3.7894,4.4507 0,0.6632 -3.683,5.5801 -2.1493,11.14 0.9054,3.2823 2.1451,7.9365 2.1432,11.8411 -0.0022,4.5311 2.52,6.8308 6.9935,7.0018 4.6124,0.1763 8.934,-0.5479 11.9876,-2.0134 1.081,0.9398 3.2457,2.0606 3.2457,3.9956l0 0.2498c0,0.9167 -0.3868,1.2071 -0.749,1.7481 -1.6735,0 -5.3511,-0.6668 -5.7424,-1.7481 -1.8838,0 -1.7551,-0.7492 -3.4954,-0.7492l-2.247 0c-3.0421,0 -4.5847,1.9978 -5.9921,1.9978 -0.3227,0 -1.2682,-0.3877 -1.7477,-0.4995l-0.483 -2.75 -1.2519 -0.2976c-0.2586,1.1062 -0.7618,1.8575 -0.7618,3.0476l0 1.2487c0,0.944 0.6091,1.6657 0.9986,2.2475 -1.0059,0.5324 -2.2333,1.2487 -3.745,1.2487 -0.7207,0 -2.2471,-1.4767 -2.2471,-3.2465 -0.4506,-0.3018 -0.4389,-0.4994 -0.9986,-0.4994l-0.7491 0 -0.8864 3.7106c-2.1583,-1.0665 -4.7326,-1.0726 -5.6431,-3.6726 -0.7791,-2.2247 -1.5836,-4.9689 -2.1563,-7.3328 -1.1024,-4.5494 -2.05,-11.4698 -2.05,-16.9288 2.1874,0.182 1.9974,4.1506 1.9974,6.4929 1.4072,2.102 1.2498,17.4809 4.494,17.4809l0.2497 0c3.1312,0 10.7359,-3.9298 10.7359,-6.7426 0,-4.0304 -2.9961,-9.7221 -2.9961,-13.735 -1.1236,-1.6784 -1.4752,-7.6594 -1.9327,-9.5897 -0.8153,-3.44 -2.2646,-5.3964 -4.737,-7.2135 -1.8326,-1.3468 -5.7092,-3.1842 -8.8133,-3.1716 -3.5597,0.0145 -3.0252,-1.6234 -3.5399,1.9464 -0.2113,1.4656 -0.7554,3.4117 -1.9494,4.0436l-0.719 -0.5356c-0.0301,-8.0987 -2.182,-8.5085 -7.2705,-11.2016 0,-3.3811 0.3433,-6.5218 -2.1589,-7.5799 -1.3619,-0.576 -2.1326,-0.6799 -3.3361,-1.408 -0.8483,-0.5131 -1.6817,-2.0001 -2.7442,-2.0001 -0.6692,0 -0.96,0.3556 -1.2483,0.7492 2.3486,3.5081 0.6975,0.9694 1.6375,5.1047 0.6875,3.0242 1.3576,2.2692 2.6069,4.1352l-3.4961 -0.046c-0.027,0.3795 -2.4331,6.7289 -2.9001,8.3823 -0.584,2.0673 -1.3436,7.45 -1.3436,9.8938l0 8.241c0,5.0023 1.8037,12.5163 3.3639,16.1141 1.93,4.4504 2.9878,9.9707 5.4465,13.6431 0.8696,1.8372 1.2184,1.5705 3.2601,1.7404 1.6997,-0.7036 6.7545,-2.1885 8.1528,-4.2773 -0.3576,-4.2983 -2.4186,-9.4694 -3.7215,-13.0094 -0.7546,-2.0503 -3.0196,-11.0666 -3.0196,-13.4617l0 -3.9956 0.4994 0 -0.3042 -0.9847c0.637,0.4127 3.3482,14.172 3.8519,16.1657 0.5194,2.0554 4.2996,13.2055 5.1907,14.5366l7.0405 -2.62 1.5252 1.2945c-1.9893,0.1194 -5.0959,2.5325 -6.3652,3.5264 -0.6318,0.4946 -3.6985,5.1285 -3.6985,5.7903l0 0.2498c0,1.7491 2.8004,0.1368 3.4447,-0.3005 1.2347,-0.8379 2.544,-1.058 3.5954,-1.8978 2.4887,-1.9881 2.1561,-3.3414 5.4435,-5.5433 0.9545,0.8299 4.2853,1.9978 6.2417,1.9978l1.2484 0c-0.1332,1.6005 -0.9987,2.6342 -0.9987,4.7449 0,1.8777 1.4511,5.494 2.7464,5.494l0.2497 0c0.8115,0 0.1885,-0.2164 1.2483,-0.4995 -0.1213,-1.4587 -0.749,-1.2125 -0.749,-1.9978l0 -0.2497c0,-0.4413 1.6116,-2.2738 1.9805,-3.2756 0.5611,-1.5233 -0.4825,-2.4517 -0.4825,-4.2163 0,-1.554 1.2885,-1.8977 2.3099,-2.9339 0.7666,-0.7777 2.1275,-2.2782 3.1829,-2.5601 0.3263,0.6583 0.2497,-0.2056 0.2497,0.7492 0,0.0882 -2.2471,2.2907 -2.2471,5.2443 0,1.4804 0.5757,3.6276 1.498,4.2454l1.9887 -0.3144c-0.1137,-1.4062 -0.4906,-0.4562 -0.4906,-1.4337l0 -0.7492c0,-0.8699 1.9377,-2.5685 2.1591,-3.3344 0.5328,-1.8426 0.0879,-3.0634 0.0879,-4.9066l-0.8569 -1.1672 2.6046 -0.0815c3.3336,0 4.9672,1.8726 7.0191,2.9586 -2.1394,2.9207 -6.7694,3.6246 -6.7694,9.7775l0 1.4984c0,3.9254 3.2457,8.08 3.2457,9.4896l0 0.2498c0,3.2676 -2.4457,4.7448 -5.7424,4.7448l-1.2484 0c-3.8127,0 -5.5149,-2.6192 -7.5564,-4.6786 -1.3707,-1.3827 -4.1617,-5.643 -5.6698,-6.5655 -9.9879,-6.1093 -13.915,2.2539 -17.733,2.2539l-0.4993 0c-0.7253,0 -1.9974,-2.0248 -1.9974,-2.4973 0,-1.0909 0.4994,-0.9069 0.4994,-1.9978 0,-0.5282 -0.0894,-0.3292 -0.2497,-0.9989 -1.9197,0.1598 -5.2431,4.7582 -5.2431,6.7426l0 1.7481c0,2.9389 4.0311,6.2432 7.2405,6.2432l0.749 0c3.4204,0 4.2867,-5.7437 9.2378,-5.7437l0.749 0c3.017,0 8.4826,7.9007 11.9749,9.6951 2.6265,1.3495 4.0678,2.9271 7.6272,3.6087 4.9616,0.9502 6.4096,-1.0163 9.4797,-1.0163l0.4994 0c0.6041,0 1.7476,1.1438 1.7476,1.7481 0,2.1933 -3.6575,5.4431 -6.112,5.4431 -2.3826,0 -4.5164,-1.6543 -6.4502,-2.5386 -2.935,-1.342 -7.5434,-3.549 -10.3467,-1.0265 -0.7043,0.6338 -1.6788,2.1457 -1.6788,3.3154l0 0.9989c0,0.8984 2.4424,2.1503 3.3373,2.4057 0.8672,0.2475 4.2578,0.0916 5.4012,0.0916 1.6927,1.1337 7.4925,3.2465 10.2365,3.2465 7.0888,0 12.4446,-6.493 14.7306,-6.493 2.1343,0 3.9632,2.4669 5.0354,3.704 0.819,0.9449 3.9231,3.0387 5.4508,3.0387l0.749 0c4.2416,0 10.7358,-2.9351 10.7358,-6.4929l0 -0.9989c0,-1.2344 -1.013,-2.2476 -2.247,-2.2476l-0.2497 0c-1.7848,0 -4.3384,2.1304 -5.7044,2.1304l-0.9987 0c-1.5249,0 -4.1147,-2.1198 -4.1147,-3.5625 0,-1.8882 4.2216,-3.3127 6.0741,-3.3127l1.2483 0c1.9267,0 4.5825,1.3436 6.7942,1.695 2.3609,0.3751 4.7781,0.5525 7.4371,0.5525 6.3553,0 9.5117,-7.8635 13.3321,-10.3889 3.9095,-2.5843 6.6635,-0.7538 9.5443,-2.4405 1.9836,-1.1613 4.5874,-4.1253 4.5874,-7.1488l0 -1.2486c0,-2.3865 -2.6549,-5.2443 -5.4783,-5.2443 -2.4329,0 -4.0864,0.5296 -4.0864,3.009l0 0.4994c0,1.5959 1.5662,2.255 1.5662,3.8508 0,1.7533 -6.5478,2.316 -8.5403,2.3858 -2.6527,0.0928 -4.4406,1.4564 -6.0292,2.7099 -2.4201,1.9098 -8.0519,7.04 -12.1778,7.04l-0.9987 0c-2.6429,0 -3.0142,-8.1242 -7.5316,-8.1242l-1.2483 0c-2.1244,0 -3.7495,1.6973 -5.625,1.6973l-0.749 0c-0.9473,0 -2.3171,-1.6065 -2.7463,-2.2476 0,-7.1739 2.05,-9.7683 6.2673,-14.0067 3.8696,-3.8889 6.4686,-3.6477 12.3193,-3.6477l0.3843 2.1205c0.0937,1.003 -1.7782,2.6771 -1.7782,4.7135l0 1.2487c0,2.2179 1.1824,3.7459 3.4954,3.7459l1.0781 1.4189c0.4215,-0.694 1.1689,-3.636 1.1689,-4.4157 0,-1.9541 -1.7477,-3.4168 -1.7477,-5.494l0 -1.2486c0,-0.4087 0.1495,-0.7492 0.4994,-0.7492 0.878,0 4.5885,1.9978 8.4888,1.9978 1.7356,1.1625 1.8501,3.269 4.5859,4.4033 1.366,0.5664 2.1157,0.4491 2.915,1.5794 0.5704,0.8068 0.8631,2.5081 1.7369,2.5081l0.2497 0c0.5844,0 0.9987,-0.4144 0.9987,-0.9989l0 -0.4995c0,-3.5042 -3.049,-5.0836 -4.4941,-7.2421 6.2655,0 8.801,-4.7448 9.9868,-4.7448 0.5315,0 4.1111,4.9945 9.9869,4.9945l1.2483 0c1.4665,0 4.0304,-0.702 4.8124,-1.4297 1.94,-1.8052 1.3732,-1.2029 2.591,-3.6515 1.0391,-2.0892 2.2624,-7.9278 3.0828,-9.1532l1.6665 -10.9624c0.4757,-4.2554 -1.8951,-7.6272 -4.3108,-9.1179 -2.3517,-1.4512 -9.5896,-1.5366 -9.5896,-3.6438l0 -0.2498c0,-2.2318 1.2637,-2.9967 3.4954,-2.9967l0.749 0 0.3138 2.2403c0.3217,0.2657 0.4593,0.561 0.9346,0.5067l6.7515 -0.6576 0.1269 -0.6285 0.0525 -2.7115c0.0873,-0.8191 -0.6892,-1.9886 -0.6892,-3.4942 -1.509,-2.2542 -3.1211,-6.4929 -6.7411,-6.4929l-3.4954 0c-0.6743,0 -0.6884,0.1192 -1.2483,0.2497 0.0618,-2.7752 2.4967,-4.2139 2.4967,-5.9935l0 -2.2475c0,-1.6698 -2.7825,-6.2432 -3.7451,-6.2432l-0.9986 0 0 0.7492c0,0.8287 0.4993,0.5213 0.4993,0.9989 0,0.1671 -1.7602,4.9745 -2.0612,6.6807 -0.4747,2.6909 0.6481,4.8171 1.8115,6.5548l-3.0384 1.4127c0.0424,-4.442 -0.172,-6.2003 -2.7717,-8.3373 -0.6883,-0.5658 -5.875,-5.312 -5.9244,-5.312l-0.2497 0c-0.5844,0 -0.9987,0.4143 -0.9987,0.9989l0 0.2497c0,0.6018 0.6646,0.9106 0.9789,1.768 0.2554,0.6965 0.3209,1.4273 0.5556,2.1913 0.4961,1.6153 0.1878,2.6951 0.9261,4.5676 1.1314,2.8698 2.3207,4.7103 5.5289,5.4579 -0.0196,0.882 -1.6145,3.7895 -2.001,4.9908 -0.203,0.6307 -1.2447,4.9499 -1.2447,5.4977l0 1.9978c0,4.0576 -0.2909,7.9913 3.745,7.9913 2.4815,0 3.303,-0.9989 4.9935,-0.9989 1.8328,0 3.2457,0.6639 3.2457,2.4973l0 3.9956c0,1.2305 -0.4914,2.8896 -0.749,3.9957 -1.4204,-1.0409 -1.8199,-3.0799 -4.2359,-4.5036 -0.991,-0.584 -1.989,-0.8158 -2.867,-1.3778 -1.2319,-0.7884 -1.0652,-2.1099 -2.1349,-2.1099l-0.2497 0c-0.5844,0 -0.9987,0.4143 -0.9987,0.9989 0,0.363 0.9332,3.1305 1.1622,3.5824 0.7805,1.5403 0.8673,1.6287 2.1282,2.6161 2.3983,1.8783 2.6762,2.4707 6.1971,3.2911 -0.2645,1.1354 -1.2271,1.7481 -2.4967,1.7481 -2.7514,0 -3.7813,-3.4961 -5.4928,-3.4961l-0.4993 0c-1.1941,0 -1.5507,0.2828 -2.2471,0.7491 -2.7647,0 -4.0551,3.9227 -4.6434,6.3436 -0.4761,1.9594 -0.6884,2.3985 -2.142,3.3515 -0.561,0.3678 -2.9638,1.5427 -3.7007,1.5427l-3.7451 0c-3.2984,0 -5.3149,-1.642 -8.4753,-2.2611 -5.3719,-1.0523 -2.2605,-3.4376 -2.2605,-6.2297 0,-0.5281 -0.0894,-0.3292 -0.2497,-0.9989 -0.7084,-0.165 -0.4268,-0.2497 -0.9987,-0.2497 -0.6084,0 -2.247,3.5463 -2.247,4.7448l0 1.2487 -5.9921 0c-3.5861,0 -5.3555,1.0334 -8.844,1.6548 -2.4714,0.4403 -5.8354,-2.14 -6.6356,-3.6527l3.4922 -0.3059 0.7221 -0.4795c3.0047,0.0363 3.7325,-0.8363 4.0088,-3.4759 0.2253,-2.1519 0.4027,-4.6476 0.5154,-6.7266 0.2163,-3.9907 0.9337,-9.4538 1.2483,-13.2356l0.5368 -0.1374 1.4686 0.3639 0.2913 0.0573 -2.269 19.9472 -0.0277 1.2455c0,3.6218 2.8768,3.5776 5.7424,4.2454 4.4324,-0.0988 4.4539,-2.697 5.9921,-4.9945 0,-1.6804 0.7647,-4.941 1.0993,-6.8918 0.4038,-2.354 0.5956,-4.8062 0.6392,-7.3525 0.0378,-2.2075 0.0068,-4.6893 0.0092,-7.482 0.0036,-4.0943 -1.498,-5.2243 -1.498,-6.493l0 -0.2497c0,-1.3776 3.9947,-1.0868 3.9947,-5.2443 0,-2.7556 0.0528,-3.2358 -0.4723,-4.6868 -2.7402,-0.7008 -5.1436,6.018 -4.8207,9.0389l-3.6064 -1.7749c0.6272,-0.8995 2.6577,-2.4303 2.6577,-4.0755l0 -0.2498c0,-1.3872 -0.7326,-1.6428 -1.9974,-1.748 0.6806,-0.5917 1.498,-0.9651 1.498,-2.2476l0 -0.4994c0,-1.4478 -1.3844,-2.5807 -1.9973,-3.4962 3.5122,0 7.2294,2.1218 9.0544,3.9293 1.3823,1.3692 5.2041,5.4705 4.9271,8.0576l-0.2889 3.2422c-4.216,0.9958 -5.7032,6.3489 -5.7032,11.7414l0 2.747 0.721 16.9825c3.1743,2.1064 1.1869,0.8363 4.879,2.1394 1.2887,0.4548 4.4128,0.6066 6.1346,0.6066l0.2496 0c2.3251,0 5.2132,-2.2148 6.5622,-3.4255 1.0936,-0.9815 2.6756,-5.2267 2.6756,-7.3128 1.272,-1.8999 1.4981,-7.7493 1.4981,-10.988 0,-3.3775 -1.4097,-8.1713 -3.0043,-9.9809 -1.558,-1.768 -6.5891,-3.0049 -9.9786,-3.0049 1.0024,-2.7698 5.353,-0.246 8.127,-2.6095 1.237,-1.054 1.4527,-2.0035 2.4205,-2.8232 0.9142,-0.7744 1.658,-0.3709 1.658,-1.8476 0,-0.5838 -0.3247,-1.2486 -0.9986,-1.2486 -0.0226,0 -1.2329,1.0952 -1.6664,1.3398 -0.9703,0.5475 -2.4698,0.555 -3.7719,0.7224 -2.929,0.3764 -4.9621,2.6705 -7.0043,4.0383 -1.1919,-8.0218 7.1045,-3.8731 7.6355,-6.521l-0.158 -1.5392 -1.6368 -10.4651c-0.0054,-0.877 0.7026,-4.5332 0.918,-5.2375 0.4887,-1.5976 1.5381,-3.3539 1.7174,-4.0258 2.9152,0.6793 3.7076,7.9912 6.9908,7.9912l0.4994 0c3.5944,0 6.2896,-2.5786 7.7398,-4.7448 -0.349,-4.1942 -11.4905,-14.9836 -14.4809,-14.9836l-0.2497 0c-0.9749,0 -2.2471,0.9528 -2.2471,1.7481l0 2.2475 -0.9967 -0.5025 -0.4431 -1.7675c2.7774,-3.2406 2.4071,-4.1158 -0.4954,-7.032 -0.7557,-0.7593 -5.9297,-4.6827 -6.8032,-4.6827l-0.4994 0c-0.7051,0 -0.9632,0.573 -1.2483,0.9989 1.0793,2.2499 2.4967,28.8026 2.4967,33.9629l0 10.7383c-0.5794,-0.2098 -6.2418,-9.4554 -6.2418,-10.7383l0 -1.2486c0,-1.6871 0.4948,-2.9437 0.6986,-4.2958 0.1789,-1.1865 0.0504,-3.3972 0.0504,-4.6944 0,-3.2481 0.2187,-6.6806 0.2592,-9.4801 0.0767,-5.3056 -1.0728,-12.8798 -3.1453,-16.102 -1.3776,-2.1418 -3.0593,-3.1802 -5.4382,-4.3 -1.3229,-0.6227 -6.0306,-2.0011 -7.6742,-2.0674 -2.484,-0.1003 -6.5519,0.6253 -8.1886,1.5137 -3.423,1.8582 -2.4708,2.5998 -4.525,4.9636 -0.5319,-2.2835 -1.5896,-4.2984 -3.4893,-5.2504 -1.3545,-0.6789 -1.7484,-0.4728 -2.8214,-1.6731 -0.6847,-0.766 -0.8562,-2.0667 -2.1781,-2.0667 -0.3039,0 -0.749,0.5165 -0.749,0.9989l0 0.2497c0,0.3299 1.3403,2.3007 1.6534,3.091 0.4535,1.1446 0.5707,2.3398 1.0102,3.4847 0.6342,1.6519 2.5309,4.4123 4.5768,4.4123l1.2484 0 0 2.747z"/>
  <path class="fil1" d="M75.5602 93.3095l-0.2609 -6.9917 0 -3.7459c-5.8737,1.3687 -20.8072,12.6795 -22.7326,17.7181 -0.6683,1.7491 0.693,16.6217 1.2582,18.495 0.799,2.6479 2.6289,4.0787 4.4356,5.8023 0.9945,0.9487 5.1768,3.2997 6.8023,3.435 -0.5643,-2.1137 -3.2706,-3.8511 -4.1056,-7.6307 -0.7857,-3.5566 -0.6382,-7.1734 -0.6382,-10.5994l0.0567 -0.7563 -0.2564 -2.69 0.4494 -0.5494c3.1766,0 5.198,-1.0136 8.9884,-0.9986 1.3045,0.0052 3.4074,-0.1167 4.6573,-0.3362 1.7571,-0.3086 1.5842,-1.6223 1.5842,-3.6597l0 -0.2497c0,-0.5755 -0.1737,-0.7492 -0.749,-0.7492l-1.7477 0c-2.545,0 -6.4474,0.9746 -8.6362,1.6006 -7.8915,2.2569 -3.748,0.7303 -5.3454,-2.5995 1.5071,-1.0094 0.8816,-1.339 3.2049,-2.0387 1.1744,-0.3537 3.0846,-0.7503 4.4316,-1.0614 1.4156,-0.327 3.463,-0.4489 4.7016,-0.7913 1.5823,-0.4375 3.0227,-1.3709 3.9018,-1.6033zm-2.6646 61.3406c-0.9687,-3.2369 -1.6562,-6.7853 -2.3221,-10.1637 -0.6753,-3.4258 -1.4437,-6.6342 -4.0592,-8.1766 -2.694,-1.5885 -4.9582,-3.293 -9.1913,-3.293 -1.3516,0 -0.976,5.9935 -3.4954,5.9935l-1.2484 0c-1.3825,0 -1.6985,-0.9288 -2.247,-1.7481 0,-4.1947 -0.339,-6.8694 -2.892,-8.5949 -2.2713,-1.5351 -6.2829,-2.2939 -9.1275,-1.6798 -2.9271,0.632 -4.4588,14.2289 -4.4588,19.0152l0 3.9956c0,6.621 1.4697,12.0147 3.3923,16.8349 0.938,2.3516 4.485,14.1313 6.3449,14.1313l0.749 0c1.6102,0 4.7839,-2.4243 5.9921,-2.747l0 -1.7481c0,-1.3276 -3.182,-9.7603 -3.7486,-11.9834 -0.7519,-2.9503 -2.9925,-9.6407 -2.9925,-12.7396l0 -3.2465c0,-2.4323 0.8168,-3.4961 3.2457,-3.4961 0.6743,0 0.6884,0.1192 1.2483,0.2497 1.2264,5.2651 1.3546,10.9366 2.903,16.0756 0.7614,2.5271 1.3562,4.7767 2.196,7.2932 0.6481,1.9423 2.2451,5.3987 2.6408,7.0979 1.1536,-0.096 5.9921,-1.9366 5.9921,-2.747 0,-2.1259 -0.9524,-3.5878 -1.3516,-5.6404 -0.4451,-2.2882 -0.8075,-3.4071 -1.2454,-5.9964 -0.7201,-4.2582 -1.3977,-8.2001 -1.3977,-13.0862 0,-1.0122 0.2691,-2.2475 1.2484,-2.2475l0.4993 0c2.0042,0 3.5214,2.0361 3.4954,4.4951 -0.0255,2.4025 0.8567,4.3842 0.9987,6.9923 0.2786,5.118 0.8278,9.7472 2.996,12.9859 2.312,-0.5388 8.2392,-3.1492 8.2392,-5.494l0 -0.4995c0,-1.7159 -1.847,-7.9719 -2.4037,-9.8324zm24.724 0.4424c0.9113,-3.2013 1.8977,-6.1335 1.8977,-10.0887 0,-2.9699 -1.4216,-5.954 -3.193,-7.2948 -1.3249,-1.003 -5.8014,-2.4283 -8.2296,-2.1516 -2.1914,0.2497 -6.5038,1.5117 -8.0091,2.4966 -1.56,1.0208 -3.538,4.5833 -3.538,6.9498l0 2.2475c0,3.2936 1.8799,8.186 2.2294,11.5051 0.5612,5.33 -0.1371,8.0388 6.0091,7.9082l4.7444 0.0654c1.6265,-0.0172 2.4102,-0.7194 3.6205,-0.8838l1.6888 -1.5621 0.1835 0.1984c0.1546,-1.8583 1.9652,-7.1728 2.5963,-9.39zm-8.0891 -12.8357c2.1858,0 3.9947,1.5126 3.9947,3.7459l0 2.2475c0,2.5881 -0.8973,6.577 -1.3946,9.0936 -0.5686,2.8771 -1.2312,5.8901 -4.5975,5.8901 -3.0372,0 -2.5555,-2.9334 -3.0576,-5.4325 -0.4284,-2.1325 -0.6874,-4.8771 -0.6874,-7.5534l0 -1.4983c0,-5.6085 2.0556,-4.5843 2.7463,-6.4929l2.9961 0zm34.7076 18.4832c0.1287,-4.0311 1.245,-8.3237 1.245,-13.239l0 -1.9978c0,-2.8222 -0.2656,-5.8054 -1.535,-7.4548 -1.1019,-1.4316 -3.4843,-3.0337 -5.9551,-3.0337l-0.2497 0c-0.3184,0 -2.066,0.7491 -3.9947,0.7491 -0.0433,1.9452 -2.0632,2.9968 -3.9948,2.9968l-0.4993 0c-1.2124,0 -1.0666,-4.7449 -2.9961,-4.7449l-1.7476 0c-0.5822,0 -1.2484,0.6664 -1.2484,1.2487l0.1548 2.9845 0.8439 12.998 0.1748 4.2704 -1.4232 10.4636 0 0.7491 2.9961 0c0.8472,0 2.038,-0.7167 3.4954,-0.7491 0.5542,-2.3796 1.7202,-9.9015 1.7572,-12.4769 0.0609,-4.247 -0.8355,-10.9975 3.2362,-10.9975l0.9987 0c0.9578,0 1.7477,0.7206 1.7477,1.4983l0 0.2498 0.2503 0.0281 -2.2477 18.4517 0 1.9978c0,1.8832 0.3193,3.2465 2.247,3.2465 2.5538,0 4.0067,0.3542 5.0833,-1.6583 0.6642,-1.2416 1.6071,-3.8851 1.6612,-5.5804zm25.4631 -11.7406c0,-2.4376 -1.3915,-7.1829 -2.4405,-8.5469 -0.698,-0.9076 -2.1056,-1.7305 -3.4856,-2.0077 -0.3652,-0.0734 -4.7464,-0.9415 -4.8193,-1.0025l-4.4787 0.6122c-0.9772,1.4078 -2.1105,1.9046 -3.0117,3.9427 -0.555,1.2552 -0.7392,4.571 -0.7392,6.5027l0 3.2465c0,3.6267 0.4994,7.3722 0.4993,11.7372 0,2.0942 -0.4399,4.529 1.3347,4.9082 1.8104,0.387 3.4508,0.8355 5.4064,0.8355l1.2484 0c8.2175,0 10.4862,-10.2242 10.4862,-18.4798l0 -1.7481zm-4.9934 -0.9989l0 1.7481c0,3.0831 -0.7104,6.6667 -1.4522,9.036 -0.7989,2.5517 -0.2509,6.9465 -3.2916,6.9465l-0.9987 0c-1.4474,0 -3.2457,-1.1363 -3.2457,-2.747l0 -0.2497 0.8937 -7.9784 -0.1447 -2.5101c0,-3.5743 -1.0299,-9.7394 3.2457,-9.7394l1.7477 0c0.7193,0 2.2906,1.2492 2.6631,1.8314 0.4105,0.6415 0.5827,2.6061 0.5827,3.6626zm18.9749 -17.9804c-5.5295,0 -8.2391,8.8172 -8.2391,14.7339 0,2.2416 -0.0716,5.9935 2.247,5.9935l0.2497 0c1.0553,0 2.4903,-0.9989 3.9948,-0.9989l1.2483 0c2.6037,0 4.4941,1.5023 4.4941,3.9956l0 1.2487c0,4.9975 -0.913,12.2366 -5.7424,12.2366 -3.2194,0 -3.8952,-2.3864 -5.9921,-3.4962 -5.2632,1.2265 -4.4941,3.8603 -4.4941,9.4897l2.7464 0c1.5894,0 4.2887,5.494 10.4861,5.494 5.2247,0 6.4734,-3.4125 7.8355,-7.3962 1.0791,-3.1563 2.858,-8.7516 2.8906,-12.5918 0.0194,-2.2795 0.5955,-3.4864 0.2445,-6.7179 -0.2159,-1.988 -1.3058,-4.0388 -2.8247,-4.9162 -3.3981,-1.9629 -10.6426,-0.4214 -10.6426,-4.8381l0 -1.4984c0,-1.7903 2.5245,-3.2465 4.7438,-3.2465l0.2496 0c1.9062,0 2.8492,0.9819 2.9961,2.747l2.247 0c0.824,0 2.2471,-0.3367 2.2471,-0.9989 0,-3.1637 -0.7808,-4.2463 -1.7082,-6.2827 -0.6476,-1.422 -2.6018,-3.7064 -4.2839,-3.7064l-2.2471 0c-1.3517,0 -1.943,0.2112 -2.7464,0.7492zm-82.4162 -49.4455l0.7739 36.7094c1.1482,1.7152 5.2184,1.4984 7.9894,1.4984 2.9674,0 5.496,-1.2487 7.2405,-1.2487l0.2497 0c1.654,0 1.4109,2.2653 1.1919,3.6894 -0.182,1.1833 -0.4116,3.8449 -0.6926,5.0511l-1.2483 0c-0.3513,-0.9705 -2.6777,-1.9978 -3.9948,-1.9978 -2.129,0 -5.2431,2.6248 -5.2431,4.4951l0 0.7491c0,2.5746 3.4931,3.9957 6.4915,3.9957 4.9023,0 8.1873,-4.2454 9.2378,-4.2454l1.0257 -0.2222c3.2415,0.2698 3.8801,4.7173 9.4605,4.7173l1.2483 0c2.743,0 6.1307,-1.7088 6.7411,-3.9956l-0.1105 -0.2531 -4.3863 1.9767 -2.9933 0.2742 -0.4993 0c-1.0297,0 -2.2471,-0.8394 -2.2471,-1.7481l0 -0.4995c0,-0.9072 0.2962,-0.8759 0.4994,-1.748 0.2915,-0.0243 3.4155,-1.2972 3.9881,-1.5089 0.5197,-0.1922 3.4587,-0.2392 5,-0.2392 0.0538,-0.1017 0.4994,-0.9701 0.4994,-0.9989 0,-0.6994 -1.4715,-2.5399 -2.2471,-2.747l-1.498 -0.2498c-2.2734,-0.5297 -7.6664,-0.1571 -9.2963,0.9404 -1.8805,1.2662 -3.996,5.0531 -5.6839,5.0531 -0.7768,0 -1.1336,-0.9539 -1.4298,-1.5054l-0.3179 -3.2394c-0.3525,-3.4406 0.7324,-5.0733 1.7477,-6.9924 -0.6339,-1.1982 -2.763,-1.9978 -4.4941,-1.9978l-1.2569 -0.051 -3.9862 0.5504c-0.201,0.1398 -0.6164,0.4995 -0.749,0.4995 -2.4017,0 -1.7073,-5.063 -2.0211,-7.7178 -0.3296,-2.7881 0.1053,-7.2176 -0.376,-9.8628 -0.8631,-4.7445 -0.0996,-14.7753 -0.0996,-19.8785l-0.0824 -0.2387 -8.4313 2.9862zm16.0203 47.5029c0.4981,0.2637 0.9036,0.1971 0.9036,0.9039l0 0.9038c0,0.9218 -3.946,1.1298 -4.9699,1.1298 -1.0802,0 -2.2591,-0.7976 -2.2591,-2.0336 0,-0.9303 0.3399,-1.4302 0.9036,-1.8078 2.1406,0.1783 3.3638,1.3835 5.4218,0.9039zm12.4341 -3.7101c0.8886,-0.0739 1.9434,-0.8236 3.4673,-0.9274 2.3365,-0.1592 1.1554,0.3167 3.0505,-0.5565 0.8169,0.1636 1.1148,0.5529 1.1149,1.2526l0 0.2313c0,2.1787 -5.7432,-0.2009 -6.4763,2.5448 -0.7242,-0.0602 -1.3877,-0.1586 -1.3877,-0.9254l0 -0.4626c0,-0.6249 0.1104,-0.6379 0.2313,-1.1568zm26.1137 -37.5569l1.9625 33.4655 -0.0201 0.5074 -0.3337 6.5964 5.5168 -0.8559c0.3321,-3.9927 -1.4981,-6.6623 -1.4981,-10.4885 0,-2.62 0.5122,-5.2632 1.0086,-7.482 0.5936,-2.6537 1.1774,-4.0055 3.9849,-4.0055 3.168,0 3.6219,7.9913 6.9907,7.9913l1.2484 0c0.8577,0 4.2444,-2.327 4.2444,-3.2465l0 -0.4994c0,-2.9356 -10.3828,-12.4864 -12.2339,-12.4864l-0.2496 0c-1.4536,0 -0.095,3.4962 -2.2471,3.4962l-1.2483 0c-1.1979,0 -2.4967,-2.6493 -2.4967,-3.9957 0,-2.204 1.7477,-0.995 1.7477,-2.4972l0 -0.7492c0,-1.8635 -4.8166,-5.3535 -6.3765,-5.7505zm-32.3191 10.4919c0.1425,3.5833 0.3767,11.0997 0.9326,14.3005 0.8408,4.8414 1.2488,8.6778 6.8038,8.6778l1.2483 0c3.5546,0 5.8876,-0.9916 9.1442,-0.4058 3.6543,0.6573 5.1123,1.9933 7.5838,2.6534 -0.3284,-1.2299 -1.2484,-2.0847 -1.2484,-3.7459l0 -0.9989c0,-0.69 0.6024,-4.9113 0.7314,-6.0112 0.2329,-1.9851 -0.2337,-4.7349 0.0707,-6.6719 0.5018,-3.1933 0.5629,-9.2001 -0.2031,-12.6391 -1.3226,-5.9379 -0.4295,-5.3503 -3.6928,-9.7916 -1.0277,-1.3988 -7.7265,-3.8437 -9.8891,-3.8437l-0.4993 0c-4.0185,0 -9.8,1.8114 -10.687,4.544 -0.6981,2.1508 -1.16,3.4392 -0.7802,6.6761 0.2188,1.8655 0.4087,5.3364 0.4851,7.2563zm8.4854 -3.2431l0 -8.241c0,-0.9604 1.8277,-1.7481 2.7464,-1.7481l0.749 0c5.4337,0 6.4107,3.8741 6.9731,8.7582 0.5472,4.7519 1.266,9.3126 1.266,13.7173l0 1.2487c0,0.5397 -1.7403,3.7159 -2.0808,4.4116 -1.2233,2.4991 -2.1651,1.9686 -3.1623,3.3299 -0.6581,-0.3264 0.2056,-0.2497 -0.749,-0.2497 -4.6464,0 -4.4713,-3.4935 -4.7438,-8.4907 -0.2182,-4.0008 -0.9986,-8.5304 -0.9986,-12.7362z"/>
  <g style="clip-path:url(#id0)">
   <g id="_95180704">
    <path id="_951809441" class="fil2" d="M32.1655 132.109c0.2182,-13.6078 34.5154,-24.0735 76.5892,-23.3713 42.0738,0.7022 76.017,12.3069 75.7988,25.9147 -0.0016,0.0979 -0.0049,0.1957 -0.01,0.2933l11.0708 0.1848 1.1405 -61.0126 -175.784 -2.9339 -1.1405 61.0126 12.3355 0.2059c-0.0019,-0.0978 -0.0022,-0.1956 -0.0006,-0.2935z"/>
    <path id="_95180872" class="fil1" d="M108.755 108.738c-42.0738,-0.7022 -76.371,9.7635 -76.5892,23.3713 -0.0016,0.0979 -0.0013,0.1957 0.0006,0.2935l2.2078 0.0368 -0.0235 1.4669 -2.0217 -0.0337c2.5865,12.8332 35.3917,23.4796 75.6356,24.1513 40.2439,0.6717 73.3729,-8.8743 76.3695,-21.6143l-5.1832 -0.0865 0.0235 -1.4669 5.3694 0.0896c0.0051,-0.0976 0.0084,-0.1954 0.01,-0.2933 0.2182,-13.6078 -33.725,-25.2125 -75.7988,-25.9147z"/>
    <path id="_95180800" class="fil3" d="M107.964 158.024c-40.2439,-0.6717 -73.0491,-11.3181 -75.6356,-24.1513l-12.5216 -0.209 -0.8704 54.2733 175.784 2.9339 0.8704 -54.2734 -11.257 -0.1878c-2.9966,12.74 -36.1256,22.286 -76.3695,21.6143z"/>
   </g>
  </g>
  <path class="fil4" d="M75.5602 93.3095l-0.2609 -6.9917 0 -3.7459c-5.8737,1.3687 -20.8072,12.6795 -22.7326,17.7181 -0.6683,1.7491 0.693,16.6217 1.2582,18.495 0.799,2.6479 2.6289,4.0787 4.4356,5.8023 0.9945,0.9487 5.1768,3.2997 6.8023,3.435 -0.5643,-2.1137 -3.2706,-3.8511 -4.1056,-7.6307 -0.7857,-3.5566 -0.6382,-7.1734 -0.6382,-10.5994l0.0567 -0.7563 -0.2564 -2.69 0.4494 -0.5494c3.1766,0 5.198,-1.0136 8.9884,-0.9986 1.3045,0.0052 3.4074,-0.1167 4.6573,-0.3362 1.7571,-0.3086 1.5842,-1.6223 1.5842,-3.6597l0 -0.2497c0,-0.5755 -0.1737,-0.7492 -0.749,-0.7492l-1.7477 0c-2.545,0 -6.4474,0.9746 -8.6362,1.6006 -7.8915,2.2569 -3.748,0.7303 -5.3454,-2.5995 1.5071,-1.0094 0.8816,-1.339 3.2049,-2.0387 1.1744,-0.3537 3.0846,-0.7503 4.4316,-1.0614 1.4156,-0.327 3.463,-0.4489 4.7016,-0.7913 1.5823,-0.4375 3.0227,-1.3709 3.9018,-1.6033zm-2.6646 61.3406c-0.9687,-3.2369 -1.6562,-6.7853 -2.3221,-10.1637 -0.6753,-3.4258 -1.4437,-6.6342 -4.0592,-8.1766 -2.694,-1.5885 -4.9582,-3.293 -9.1913,-3.293 -1.3516,0 -0.976,5.9935 -3.4954,5.9935l-1.2484 0c-1.3825,0 -1.6985,-0.9288 -2.247,-1.7481 0,-4.1947 -0.339,-6.8694 -2.892,-8.5949 -2.2713,-1.5351 -6.2829,-2.2939 -9.1275,-1.6798 -2.9271,0.632 -4.4588,14.2289 -4.4588,19.0152l0 3.9956c0,6.621 1.4697,12.0147 3.3923,16.8349 0.938,2.3516 4.485,14.1313 6.3449,14.1313l0.749 0c1.6102,0 4.7839,-2.4243 5.9921,-2.747l0 -1.7481c0,-1.3276 -3.182,-9.7603 -3.7486,-11.9834 -0.7519,-2.9503 -2.9925,-9.6407 -2.9925,-12.7396l0 -3.2465c0,-2.4323 0.8168,-3.4961 3.2457,-3.4961 0.6743,0 0.6884,0.1192 1.2483,0.2497 1.2264,5.2651 1.3546,10.9366 2.903,16.0756 0.7614,2.5271 1.3562,4.7767 2.196,7.2932 0.6481,1.9423 2.2451,5.3987 2.6408,7.0979 1.1536,-0.096 5.9921,-1.9366 5.9921,-2.747 0,-2.1259 -0.9524,-3.5878 -1.3516,-5.6404 -0.4451,-2.2882 -0.8075,-3.4071 -1.2454,-5.9964 -0.7201,-4.2582 -1.3977,-8.2001 -1.3977,-13.0862 0,-1.0122 0.2691,-2.2475 1.2484,-2.2475l0.4993 0c2.0042,0 3.5214,2.0361 3.4954,4.4951 -0.0255,2.4025 0.8567,4.3842 0.9987,6.9923 0.2786,5.118 0.8278,9.7472 2.996,12.9859 2.312,-0.5388 8.2392,-3.1492 8.2392,-5.494l0 -0.4995c0,-1.7159 -1.847,-7.9719 -2.4037,-9.8324zm24.724 0.4424c0.9113,-3.2013 1.8977,-6.1335 1.8977,-10.0887 0,-2.9699 -1.4216,-5.954 -3.193,-7.2948 -1.3249,-1.003 -5.8014,-2.4283 -8.2296,-2.1516 -2.1914,0.2497 -6.5038,1.5117 -8.0091,2.4966 -1.56,1.0208 -3.538,4.5833 -3.538,6.9498l0 2.2475c0,3.2936 1.8799,8.186 2.2294,11.5051 0.5612,5.33 -0.1371,8.0388 6.0091,7.9082l4.7444 0.0654c1.6265,-0.0172 2.4102,-0.7194 3.6205,-0.8838l1.6888 -1.5621 0.1835 0.1984c0.1546,-1.8583 1.9652,-7.1728 2.5963,-9.39zm-8.0891 -12.8357c2.1858,0 3.9947,1.5126 3.9947,3.7459l0 2.2475c0,2.5881 -0.8973,6.577 -1.3946,9.0936 -0.5686,2.8771 -1.2312,5.8901 -4.5975,5.8901 -3.0372,0 -2.5555,-2.9334 -3.0576,-5.4325 -0.4284,-2.1325 -0.6874,-4.8771 -0.6874,-7.5534l0 -1.4983c0,-5.6085 2.0556,-4.5843 2.7463,-6.4929l2.9961 0zm34.7076 18.4832c0.1287,-4.0311 1.245,-8.3237 1.245,-13.239l0 -1.9978c0,-2.8222 -0.2656,-5.8054 -1.535,-7.4548 -1.1019,-1.4316 -3.4843,-3.0337 -5.9551,-3.0337l-0.2497 0c-0.3184,0 -2.066,0.7491 -3.9947,0.7491 -0.0433,1.9452 -2.0632,2.9968 -3.9948,2.9968l-0.4993 0c-1.2124,0 -1.0666,-4.7449 -2.9961,-4.7449l-1.7476 0c-0.5822,0 -1.2484,0.6664 -1.2484,1.2487l0.1548 2.9845 0.8439 12.998 0.1748 4.2704 -1.4232 10.4636 0 0.7491 2.9961 0c0.8472,0 2.038,-0.7167 3.4954,-0.7491 0.5542,-2.3796 1.7202,-9.9015 1.7572,-12.4769 0.0609,-4.247 -0.8355,-10.9975 3.2362,-10.9975l0.9987 0c0.9578,0 1.7477,0.7206 1.7477,1.4983l0 0.2498 0.2503 0.0281 -2.2477 18.4517 0 1.9978c0,1.8832 0.3193,3.2465 2.247,3.2465 2.5538,0 4.0067,0.3542 5.0833,-1.6583 0.6642,-1.2416 1.6071,-3.8851 1.6612,-5.5804zm25.4631 -11.7406c0,-2.4376 -1.3915,-7.1829 -2.4405,-8.5469 -0.698,-0.9076 -2.1056,-1.7305 -3.4856,-2.0077 -0.3652,-0.0734 -4.7464,-0.9415 -4.8193,-1.0025l-4.4787 0.6122c-0.9772,1.4078 -2.1105,1.9046 -3.0117,3.9427 -0.555,1.2552 -0.7392,4.571 -0.7392,6.5027l0 3.2465c0,3.6267 0.4994,7.3722 0.4993,11.7372 0,2.0942 -0.4399,4.529 1.3347,4.9082 1.8104,0.387 3.4508,0.8355 5.4064,0.8355l1.2484 0c8.2175,0 10.4862,-10.2242 10.4862,-18.4798l0 -1.7481zm-4.9934 -0.9989l0 1.7481c0,3.0831 -0.7104,6.6667 -1.4522,9.036 -0.7989,2.5517 -0.2509,6.9465 -3.2916,6.9465l-0.9987 0c-1.4474,0 -3.2457,-1.1363 -3.2457,-2.747l0 -0.2497 0.8937 -7.9784 -0.1447 -2.5101c0,-3.5743 -1.0299,-9.7394 3.2457,-9.7394l1.7477 0c0.7193,0 2.2906,1.2492 2.6631,1.8314 0.4105,0.6415 0.5827,2.6061 0.5827,3.6626zm18.9749 -17.9804c-5.5295,0 -8.2391,8.8172 -8.2391,14.7339 0,2.2416 -0.0716,5.9935 2.247,5.9935l0.2497 0c1.0553,0 2.4903,-0.9989 3.9948,-0.9989l1.2483 0c2.6037,0 4.4941,1.5023 4.4941,3.9956l0 1.2487c0,4.9975 -0.913,12.2366 -5.7424,12.2366 -3.2194,0 -3.8952,-2.3864 -5.9921,-3.4962 -5.2632,1.2265 -4.4941,3.8603 -4.4941,9.4897l2.7464 0c1.5894,0 4.2887,5.494 10.4861,5.494 5.2247,0 6.4734,-3.4125 7.8355,-7.3962 1.0791,-3.1563 2.858,-8.7516 2.8906,-12.5918 0.0194,-2.2795 0.5955,-3.4864 0.2445,-6.7179 -0.2159,-1.988 -1.3058,-4.0388 -2.8247,-4.9162 -3.3981,-1.9629 -10.6426,-0.4214 -10.6426,-4.8381l0 -1.4984c0,-1.7903 2.5245,-3.2465 4.7438,-3.2465l0.2496 0c1.9062,0 2.8492,0.9819 2.9961,2.747l2.247 0c0.824,0 2.2471,-0.3367 2.2471,-0.9989 0,-3.1637 -0.7808,-4.2463 -1.7082,-6.2827 -0.6476,-1.422 -2.6018,-3.7064 -4.2839,-3.7064l-2.2471 0c-1.3517,0 -1.943,0.2112 -2.7464,0.7492zm-82.4162 -49.4455l0.7739 36.7094c1.1482,1.7152 5.2184,1.4984 7.9894,1.4984 2.9674,0 5.496,-1.2487 7.2405,-1.2487l0.2497 0c1.654,0 1.4109,2.2653 1.1919,3.6894 -0.182,1.1833 -0.4116,3.8449 -0.6926,5.0511l-1.2483 0c-0.3513,-0.9705 -2.6777,-1.9978 -3.9948,-1.9978 -2.129,0 -5.2431,2.6248 -5.2431,4.4951l0 0.7491c0,2.5746 3.4931,3.9957 6.4915,3.9957 4.9023,0 8.1873,-4.2454 9.2378,-4.2454l1.0257 -0.2222c3.2415,0.2698 3.8801,4.7173 9.4605,4.7173l1.2483 0c2.743,0 6.1307,-1.7088 6.7411,-3.9956l-0.1105 -0.2531 -4.3863 1.9767 -2.9933 0.2742 -0.4993 0c-1.0297,0 -2.2471,-0.8394 -2.2471,-1.7481l0 -0.4995c0,-0.9072 0.2962,-0.8759 0.4994,-1.748 0.2915,-0.0243 3.4155,-1.2972 3.9881,-1.5089 0.5197,-0.1922 3.4587,-0.2392 5,-0.2392 0.0538,-0.1017 0.4994,-0.9701 0.4994,-0.9989 0,-0.6994 -1.4715,-2.5399 -2.2471,-2.747l-1.498 -0.2498c-2.2734,-0.5297 -7.6664,-0.1571 -9.2963,0.9404 -1.8805,1.2662 -3.996,5.0531 -5.6839,5.0531 -0.7768,0 -1.1336,-0.9539 -1.4298,-1.5054l-0.3179 -3.2394c-0.3525,-3.4406 0.7324,-5.0733 1.7477,-6.9924 -0.6339,-1.1982 -2.763,-1.9978 -4.4941,-1.9978l-1.2569 -0.051 -3.9862 0.5504c-0.201,0.1398 -0.6164,0.4995 -0.749,0.4995 -2.4017,0 -1.7073,-5.063 -2.0211,-7.7178 -0.3296,-2.7881 0.1053,-7.2176 -0.376,-9.8628 -0.8631,-4.7445 -0.0996,-14.7753 -0.0996,-19.8785l-0.0824 -0.2387 -8.4313 2.9862zm16.0203 47.5029c0.4981,0.2637 0.9036,0.1971 0.9036,0.9039l0 0.9038c0,0.9218 -3.946,1.1298 -4.9699,1.1298 -1.0802,0 -2.2591,-0.7976 -2.2591,-2.0336 0,-0.9303 0.3399,-1.4302 0.9036,-1.8078 2.1406,0.1783 3.3638,1.3835 5.4218,0.9039zm12.4341 -3.7101c0.8886,-0.0739 1.9434,-0.8236 3.4673,-0.9274 2.3365,-0.1592 1.1554,0.3167 3.0505,-0.5565 0.8169,0.1636 1.1148,0.5529 1.1149,1.2526l0 0.2313c0,2.1787 -5.7432,-0.2009 -6.4763,2.5448 -0.7242,-0.0602 -1.3877,-0.1586 -1.3877,-0.9254l0 -0.4626c0,-0.6249 0.1104,-0.6379 0.2313,-1.1568zm26.1137 -37.5569l1.9625 33.4655 -0.0201 0.5074 -0.3337 6.5964 5.5168 -0.8559c0.3321,-3.9927 -1.4981,-6.6623 -1.4981,-10.4885 0,-2.62 0.5122,-5.2632 1.0086,-7.482 0.5936,-2.6537 1.1774,-4.0055 3.9849,-4.0055 3.168,0 3.6219,7.9913 6.9907,7.9913l1.2484 0c0.8577,0 4.2444,-2.327 4.2444,-3.2465l0 -0.4994c0,-2.9356 -10.3828,-12.4864 -12.2339,-12.4864l-0.2496 0c-1.4536,0 -0.095,3.4962 -2.2471,3.4962l-1.2483 0c-1.1979,0 -2.4967,-2.6493 -2.4967,-3.9957 0,-2.204 1.7477,-0.995 1.7477,-2.4972l0 -0.7492c0,-1.8635 -4.8166,-5.3535 -6.3765,-5.7505zm-32.3191 10.4919c0.1425,3.5833 0.3767,11.0997 0.9326,14.3005 0.8408,4.8414 1.2488,8.6778 6.8038,8.6778l1.2483 0c3.5546,0 5.8876,-0.9916 9.1442,-0.4058 3.6543,0.6573 5.1123,1.9933 7.5838,2.6534 -0.3284,-1.2299 -1.2484,-2.0847 -1.2484,-3.7459l0 -0.9989c0,-0.69 0.6024,-4.9113 0.7314,-6.0112 0.2329,-1.9851 -0.2337,-4.7349 0.0707,-6.6719 0.5018,-3.1933 0.5629,-9.2001 -0.2031,-12.6391 -1.3226,-5.9379 -0.4295,-5.3503 -3.6928,-9.7916 -1.0277,-1.3988 -7.7265,-3.8437 -9.8891,-3.8437l-0.4993 0c-4.0185,0 -9.8,1.8114 -10.687,4.544 -0.6981,2.1508 -1.16,3.4392 -0.7802,6.6761 0.2188,1.8655 0.4087,5.3364 0.4851,7.2563zm8.4854 -3.2431l0 -8.241c0,-0.9604 1.8277,-1.7481 2.7464,-1.7481l0.749 0c5.4337,0 6.4107,3.8741 6.9731,8.7582 0.5472,4.7519 1.266,9.3126 1.266,13.7173l0 1.2487c0,0.5397 -1.7403,3.7159 -2.0808,4.4116 -1.2233,2.4991 -2.1651,1.9686 -3.1623,3.3299 -0.6581,-0.3264 0.2056,-0.2497 -0.749,-0.2497 -4.6464,0 -4.4713,-3.4935 -4.7438,-8.4907 -0.2182,-4.0008 -0.9986,-8.5304 -0.9986,-12.7362z"/>
  <polygon class="fil2" points="94.6041,77.4254 96.3829,79.1676 98.9127,80.4346 100.731,83.3647 101.008,84.9486 99.5846,84.6714 97.1734,82.2956 96.0666,80.3159 "/>
  <polygon class="fil2" points="98.715,91.4027 99.0312,94.2932 97.964,96.8669 96.5805,98.4904 93.3392,100.668 92.8253,100.47 94.9598,96.9461 97.4896,93.6201 "/>
  <path class="fil2" d="M98.4383 103.281c-0.2604,0.7394 -0.1396,2.008 -0.1581,2.5341l0.2767 2.2966 -1.2254 2.2173 -1.3044 1.9402 -0.3558 0.0792 -0.9091 -2.2965 1.0277 -2.6925 2.6484 -4.0784z"/>
  <path class="fil5" d="M144.42 182.989c-0.5795,-0.5963 -1.1484,-1.2009 -1.6238,-1.9111l-2.0839 -3.1126 3.7458 0c1.7518,0 3.3283,-0.4404 4.8149,-1.3628 0.5496,-0.341 1.0223,-0.7118 1.4767,-1.0988l-0.4429 -0.5293 -2.4291 -0.7025c-0.04,0.0267 -0.0801,0.0532 -0.1203,0.0795 -1.0302,0.6755 -3.608,1.8702 -4.7973,1.8702l-3.7451 0c-2.7647,0 -4.5041,-0.9071 -6.9613,-1.7658l-2.7926 -0.7357 -4.7357 -1.2444 -5.7337 0c-3.0424,0 -5.5458,1.0988 -8.4932,1.6238 -1.3922,0.248 -2.8302,-0.0993 -4.1151,-0.694l-4.1484 -4.8398 -2.765 -1.975 -0.79 -1.027 -0.474 0.474 1.501 1.817 1.343 2.37 -0.316 2.133 -0.3689 0.8485 -0.8951 0.0995 -3.16 -0.158 -3.871 -1.106 -2.528 -1.106 -3.081 0.079 -2.528 0.316 -3.081 1.738 -2.449 2.133 -2.212 1.264 -4.029 0.869 -2.054 0.158 -2.37 -0.711 -2.528 -1.106 -2.054 -1.343 -0.237 0.395 2.923 1.896 2.133 1.264 3.634 0.474 1.975 0.158 2.765 -1.106 2.528 -1.738 2.528 -2.133 3.081 -1.659 3.476 -0.237 3.318 0.948 2.844 1.422 1.343 0.711 0.756 2.2681 -0.2965 0.2772c-2.4801,3.2269 -6.263,3.4562 -6.263,8.436l0 1.4984c0,0.7851 0.1775,1.5873 0.4126,2.333 0.4015,1.2732 1.0001,2.4826 1.5946,3.6745 0.4985,0.9993 1.2385,2.3552 1.2385,3.4821l0 0.2498c0,4.56 -3.5256,6.7448 -7.7424,6.7448l-1.2484 0c-2.444,0 -4.4141,-0.8514 -6.2258,-2.4523 -0.9944,-0.8788 -1.8214,-1.8806 -2.751,-2.8183 -0.9953,-1.004 -1.9321,-2.3382 -2.8069,-3.4625 -0.4884,-0.6279 -1.8484,-2.4148 -2.4861,-2.8049 -3.0258,-1.8508 -5.9581,-2.691 -9.2563,-1.0743 -2.34,1.147 -4.768,3.6221 -7.4331,3.6221l-0.4993 0c-1.2441,0 -2.1907,-0.9376 -2.8733,-1.8746 -0.2908,-0.3993 -0.6108,-0.897 -0.8348,-1.4156 -0.6969,0.9789 -1.2614,2.0195 -1.2827,2.5388l0 1.7481c0,1.1563 1.3735,2.4967 2.2406,3.1086 0.8207,0.5791 1.9745,1.1346 2.9999,1.1346l0.749 0c1.7445,0 3.6321,-5.7437 9.2378,-5.7437l0.749 0c2.8453,0 6.1699,3.6836 8.0444,5.594 1.2038,1.2268 3.3493,3.5539 4.8445,4.3222 2.5865,1.3289 4.0846,2.8479 7.0894,3.4233 1.1706,0.2242 2.3311,0.3089 3.5116,0.1141 0.9303,-0.1535 1.8044,-0.4721 2.7079,-0.727 0.9594,-0.2707 1.8827,-0.4391 2.884,-0.4391l0.4994 0c1.7211,0 3.7476,2.0271 3.7476,3.7481 0,3.5083 -4.7391,7.4431 -8.112,7.4431 -0.4653,0 -0.9288,-0.0457 -1.3862,-0.1306 -2.3207,-0.4306 -3.8534,-1.6552 -5.8957,-2.5891 -1.9027,-0.87 -6.268,-3.0766 -8.1772,-1.3587 -0.3454,0.3108 -1.0166,1.3428 -1.0166,1.8287l0 0.4784c0.4749,0.374 1.4611,0.8742 1.8659,0.997 0.5616,0.113 1.6568,0.0723 2.2404,0.0662 0.8766,-0.0091 1.7565,-0.0454 2.6322,-0.0454l0.6079 0 0.5051 0.3383c1.6784,1.1241 7.0936,2.9082 9.1235,2.9082 2.9517,0 5.6584,-1.3602 8.0805,-2.9261 1.1133,-0.7197 2.18,-1.5055 3.2892,-2.2281 0.9818,-0.6397 2.1548,-1.3388 3.3609,-1.3388 2.9175,0 4.8225,2.4047 6.5467,4.3941 0.5538,0.6389 3.0936,2.2934 3.9464,2.3486l0.7421 0c1.3749,0 2.8976,-0.3674 4.181,-0.8435 1.2007,-0.4455 2.4993,-1.0999 3.4662,-1.9501 0.4331,-0.3808 1.0886,-1.072 1.0886,-1.6993l0 -0.9989c0,-0.1301 -0.1167,-0.2476 -0.247,-0.2476l-0.2497 0c-0.4267,0 -1.4055,0.493 -1.7888,0.6872 -1.1688,0.5922 -2.5811,1.4432 -3.9156,1.4432l-0.9987 0c-2.5533,0 -6.1147,-2.9026 -6.1147,-5.5625 0,-3.3805 5.2393,-5.3127 8.0741,-5.3127l1.2483 0c2.4786,0 4.7338,1.3426 7.108,1.7198 2.3615,0.3752 4.7334,0.5277 7.1233,0.5277 0.8265,0 1.602,-0.1815 2.3523,-0.5246 3.9343,-1.799 6.2499,-7.1352 9.8769,-9.5327 1.4916,-0.986 3.0272,-1.5557 4.7984,-1.775 1.1163,-0.1383 2.2557,-0.0879 3.3515,-0.2393 0.5367,-0.0742 1.0165,-0.2084 1.4868,-0.4838 1.6773,-0.9819 3.5979,-3.4068 3.5979,-5.4228l0 -1.2486c0,-1.4935 -1.9901,-3.2443 -3.4783,-3.2443 -0.3818,0 -1.6552,0.0298 -1.9552,0.3134 -0.1131,0.1069 -0.1312,0.5631 -0.1312,0.6956l0 0.4994c0,0.1202 0.0776,0.2515 0.1368,0.3505 0.0887,0.1483 0.19,0.2916 0.2886,0.4335 0.6737,0.97 1.1408,1.8304 1.1408,3.0668 0,2.8656 -3.935,3.6145 -6.113,3.9582 -1.4201,0.2241 -2.919,0.376 -4.3574,0.4264 -1.9885,0.0695 -3.3638,1.1004 -4.8602,2.2811 -3.5579,2.8078 -8.6562,7.47 -13.4167,7.47l-0.9987 0c-4.3971,0 -4.6747,-8.1242 -7.5316,-8.1242l-1.2483 0c-0.6207,0 -1.2983,0.308 -1.8515,0.5638 -1.0112,0.4677 -1.9449,0.9354 -3.0693,1.0859 -0.5161,0.0691 -0.1656,0.0476 -0.7042,0.0476l-0.749 0c-1.7432,0 -3.4891,-1.762 -4.4082,-3.135l-0.3381 -0.5049 0 -0.6077c0,-7.3298 1.8784,-10.4213 6.8496,-15.4174 4.4722,-4.4945 7.7942,-4.237 13.737,-4.237l1.6701 0 0.2921 1.6117c0.329,-0.1732 0.7109,-0.2717 1.138,-0.2717 0.9709,0 2.7557,0.778 3.7336,1.0982 1.5195,0.4977 3.1482,0.8996 4.7552,0.8996l0.6079 0 0.5051 0.3383c0.57,0.3818 1.0453,0.8464 1.4726,1.3805 0.93,1.1625 1.2964,2.2275 2.7663,2.837 0.1987,0.0824 0.4,0.1523 0.6021,0.2182z"/>
  <path class="fil2" d="M127.989 128.75c0.1276,0.8934 0.2206,1.7886 0.316,2.686l-1.027 1.896 -1.817 1.58 0.632 -2.133 0.395 -2.212 1.501 -1.817zm36.3827 33.569l-2.3322 -2.9697 -2.0555 -1.7818 -1.9764 -0.792 -2.095 -2.3757 0.1976 1.5442 1.8974 2.653 1.7393 1.5838 2.7669 1.9798 1.9765 0.9107 -0.0396 -0.6335 -0.079 -0.1188zm-37.2753 4.4347l-0.2767 1.3463 0 1.5442 0.3557 1.3859 -1.2253 0 -0.1582 -1.1087 0.3558 -1.9006 0.8696 -1.861 0.0791 0.5939zm0.3867 18.2065c0,1.1119 0.3256,1.7459 1.4954,1.7459l0.0733 0c0.0952,-0.4265 0.1622,-0.7988 0.1736,-1.0096 -0.0014,-0.1379 -0.0252,-0.2742 -0.0603,-0.4073 -0.1741,-0.66 -0.6331,-1.4206 -0.9262,-2.0482 -0.1314,-0.2812 -0.2504,-0.5618 -0.3531,-0.8448 -0.2338,0.4422 -0.4027,0.8749 -0.4027,1.3153l0 1.2487zm-43.1021 -11.2592l0.869 2.449 -1.027 2.923 -1.422 1.738 -0.079 1.738 -0.474 -0.869 0.395 -2.607 1.264 -1.975 -0.158 -2.37 0 -0.869 0.632 -0.158zm-7.9 8.532l-0.711 2.607 -0.948 1.106 -0.237 2.054 -0.474 -1.58 0.158 -3.397 0.237 -2.212 1.185 -1.422 0.711 1.422 0.079 1.422zm-5.214 -8.69l0.553 1.659 0.79 0.948 -1.659 -0.079 -0.158 -1.422 0.237 -1.185 0.237 0.079zm6.952 -3.239l0.553 1.817 1.343 0.474 -1.106 1.027 -0.711 -0.869 -0.237 -1.501 0.158 -0.948zm-14.457 7.742l-3.002 3.397 -3.081 2.449 -2.528 1.027 2.054 -3.081 1.896 -1.896 3.081 -1.975 1.58 0.079zm-12.0858 -61.0643c-0.2237,-1.193 -0.276,-1.0964 -0.9092,-3.0489l-2.8065 -1.9798 -2.4112 -1.0691 -2.4113 -1.5442 -1.8578 -2.0986 0.1581 1.5838 1.3835 3.1281 1.9369 1.3462 3.1623 1.2275 1.423 0.8711 2.3322 1.5839zm-13.9536 -0.0792l1.0278 1.267 2.3321 0.6732 1.7393 0.7919 0.5929 1.3462 0.5139 2.8114 -0.0791 1.5838 -1.7392 -0.4752 -1.2649 -0.9107 -1.3835 -1.5046 -0.9092 -1.663 -0.3162 -1.9402 -0.5139 -1.9798zm32.1224 2.5255l0.869 2.923 -0.79 2.686 -0.632 1.343 0.711 2.528 -0.237 0.395 -0.948 -1.58 -0.553 -1.975 0.632 -3.002 0.237 -0.395c0.6923,-1.1539 -0.2765,1.106 0.711,-2.923zm8.848 5.293l-0.79 1.501 -0.553 2.37 -1.501 2.291 -0.632 0.553 0.079 -2.37 0.79 -2.686 2.607 -1.659zm1.027 -9.717l-2.133 0.79 -3.397 -0.237 -1.975 -0.869 -3.318 -2.844 -0.316 -0.869 2.528 1.817 3.081 0.158 2.765 0.553 2.765 1.501zm72.285 4.898l1.343 1.343 2.291 1.896 1.264 2.054 0.553 2.686 0.237 1.975 -1.738 -1.027 -2.133 -2.37 -0.869 -2.686 -0.948 -3.871zm11.534 -3.081l1.422 2.765 0.158 2.37 -1.027 2.133 -0.948 1.975 -0.079 1.027 -0.79 -2.449 0 -3.002 0.869 -2.923 0.395 -1.896zm-16.59 14.062l-1.422 1.975 -2.449 0.632 -1.896 0 -2.449 0.948 -1.027 0.79 1.027 -1.343 2.449 -1.422 2.765 -0.948 1.975 -0.79 1.027 0.158z"/>
 </g>
</svg>
