<?xml version="1.0" encoding="UTF-8" standalone="no"?>
<svg
   xmlns:dc="http://purl.org/dc/elements/1.1/"
   xmlns:cc="http://creativecommons.org/ns#"
   xmlns:rdf="http://www.w3.org/1999/02/22-rdf-syntax-ns#"
   xmlns:svg="http://www.w3.org/2000/svg"
   xmlns="http://www.w3.org/2000/svg"
   xmlns:xlink="http://www.w3.org/1999/xlink"
   xmlns:sodipodi="http://sodipodi.sourceforge.net/DTD/sodipodi-0.dtd"
   xmlns:inkscape="http://www.inkscape.org/namespaces/inkscape"
   width="210mm"
   height="297mm"
   viewBox="0 0 210 297"
   version="1.1"
   id="svg8"
   inkscape:version="1.0.1 (0767f8302a, 2020-10-17)"
   sodipodi:docname="pause.svg">
  <defs
     id="defs2">
    <linearGradient
       inkscape:collect="always"
       id="linearGradient1102">
      <stop
         style="stop-color:#00ffff;stop-opacity:1;"
         offset="0"
         id="stop1098" />
      <stop
         style="stop-color:#ff00ff;stop-opacity:1"
         offset="1"
         id="stop1100" />
    </linearGradient>
    <linearGradient
       inkscape:collect="always"
       xlink:href="#linearGradient1102"
       id="linearGradient1104"
       x1="40.216667"
       y1="148.16666"
       x2="171.45"
       y2="148.16666"
       gradientUnits="userSpaceOnUse" />
  </defs>
  <sodipodi:namedview
     id="base"
     pagecolor="#ffffff"
     bordercolor="#666666"
     borderopacity="1.0"
     inkscape:pageopacity="0.0"
     inkscape:pageshadow="2"
     inkscape:zoom="0.35"
     inkscape:cx="400"
     inkscape:cy="560"
     inkscape:document-units="mm"
     inkscape:current-layer="layer1"
     inkscape:document-rotation="0"
     showgrid="false"
     inkscape:window-width="1366"
     inkscape:window-height="668"
     inkscape:window-x="0"
     inkscape:window-y="27"
     inkscape:window-maximized="1" />
  <metadata
     id="metadata5">
    <rdf:RDF>
      <cc:Work
         rdf:about="">
        <dc:format>image/svg+xml</dc:format>
        <dc:type
           rdf:resource="http://purl.org/dc/dcmitype/StillImage" />
        <dc:title></dc:title>
      </cc:Work>
    </rdf:RDF>
  </metadata>
  <g
     inkscape:label="Layer 1"
     inkscape:groupmode="layer"
     id="layer1">
    <path
       fill="currentColor"
       d="m 105.83333,82.55 c -36.247913,0 -65.616663,29.36875 -65.616663,65.61667 0,36.24791 29.36875,65.61666 65.616663,65.61666 36.24792,0 65.61667,-29.36875 65.61667,-65.61666 C 171.45,111.91875 142.08125,82.55 105.83333,82.55 Z M 101.6,169.33333 c 0,2.32834 -1.905,4.23334 -4.233333,4.23334 h -12.7 c -2.328334,0 -4.233334,-1.905 -4.233334,-4.23334 V 127 c 0,-2.32833 1.905,-4.23333 4.233334,-4.23333 h 12.7 c 2.328333,0 4.233333,1.905 4.233333,4.23333 z m 29.63333,0 c 0,2.32834 -1.905,4.23334 -4.23333,4.23334 h -12.7 c -2.32833,0 -4.23333,-1.905 -4.23333,-4.23334 V 127 c 0,-2.32833 1.905,-4.23333 4.23333,-4.23333 H 127 c 2.32833,0 4.23333,1.905 4.23333,4.23333 z"
       id="path1079"
       style="stroke-width:0.264583;fill-opacity:1;fill:url(#linearGradient1104)" />
  </g>
</svg>
